<svg version="1.1" id="Layer_1" xmlns="http://www.w3.org/2000/svg" xmlns:xlink="http://www.w3.org/1999/xlink" x="0px" y="0px"
	 width="100%" viewBox="0 0 100 100" enable-background="new 0 0 100 100" xml:space="preserve">
<path fill="#010101" opacity="1.000000" stroke="none" 
	d="
M101.000000,97.000000 
	C101.000000,97.750000 101.000000,98.500000 100.531342,99.623611 
	C69.296608,99.998131 38.529980,99.908951 7.765074,100.098717 
	C3.236798,100.126648 1.859052,98.970848 1.891138,94.307732 
	C2.102820,63.543091 2.005899,32.776325 2.345982,2.004266 
	C3.454940,1.665520 4.227470,1.332760 5.000000,1.000000 
	C5.750000,1.000000 6.500000,1.000000 7.922030,1.293499 
	C9.236660,1.721851 9.879166,1.974152 10.521872,1.974664 
	C38.453983,1.996928 66.386139,2.009574 94.318169,1.957200 
	C95.546036,1.954897 96.772751,1.333187 98.000000,1.000001 
	C98.444435,1.000000 98.888878,1.000000 99.774689,1.219241 
	C100.415733,1.711712 100.677040,1.898884 101.000000,2.000000 
	C101.000000,4.042318 101.000000,6.084635 100.706512,8.860500 
	C100.278236,10.236629 100.026100,10.879115 100.025574,11.521808 
	C100.003250,38.787292 99.990364,66.052826 100.043060,93.318222 
	C100.045433,94.546097 100.666901,95.772766 101.000000,97.000000 
M28.074219,49.500050 
	C28.074219,58.602535 28.074219,67.705025 28.074219,76.939270 
	C35.139187,76.939270 41.641098,77.293983 48.089920,76.859932 
	C59.006161,76.125183 67.209343,68.879005 68.812302,58.512390 
	C69.489426,54.133324 69.477692,49.523655 68.970688,45.111698 
	C67.950340,36.232708 61.980370,29.444391 53.129925,28.141582 
	C45.007198,26.945894 36.683979,27.112177 28.074219,26.658642 
	C28.074219,34.565681 28.074219,41.532913 28.074219,49.500050 
M69.646141,69.864006 
	C70.207466,75.362312 72.701416,78.078506 77.059479,77.937950 
	C80.175301,77.837463 83.996765,74.035721 84.002487,70.810181 
	C84.009712,66.732216 81.797798,64.097885 77.872192,63.537014 
	C73.720322,62.943802 70.888023,64.973442 69.646141,69.864006 
z"/>
<path fill="#0E0E0E" opacity="1.000000" stroke="none" 
	d="
M2.009553,2.010253 
	C2.005899,32.776325 2.102820,63.543091 1.891138,94.307732 
	C1.859052,98.970848 3.236798,100.126648 7.765074,100.098717 
	C38.529980,99.908951 69.296608,99.998131 100.531342,99.998611 
	C99.670799,100.333336 98.342094,100.955437 97.012337,100.957695 
	C65.091835,101.012032 33.171211,101.000000 1.000000,101.000000 
	C1.000000,67.667084 1.000000,34.333542 1.501911,1.252568 
	C2.005733,1.673508 2.007643,1.841880 2.009553,2.010253 
z"/>
<path fill="#090909" opacity="1.000000" stroke="none" 
	d="
M97.531342,1.000001 
	C96.772751,1.333187 95.546036,1.954897 94.318169,1.957200 
	C66.386139,2.009574 38.453983,1.996928 10.521872,1.974664 
	C9.879166,1.974152 9.236660,1.721851 8.297030,1.293499 
	C37.687561,1.000000 67.375122,1.000000 97.531342,1.000001 
z"/>
<path fill="#090909" opacity="1.000000" stroke="none" 
	d="
M101.000000,96.531342 
	C100.666901,95.772766 100.045433,94.546097 100.043060,93.318222 
	C99.990364,66.052826 100.003250,38.787292 100.025574,11.521808 
	C100.026100,10.879115 100.278236,10.236629 100.706512,9.297024 
	C101.000000,38.020893 101.000000,67.041786 101.000000,96.531342 
z"/>
<path fill="#090909" opacity="1.000000" stroke="none" 
	d="
M2.345982,2.004266 
	C2.007643,1.841880 2.005733,1.673508 2.001911,1.252568 
	C2.750000,1.000000 3.500000,1.000000 4.625000,1.000000 
	C4.227470,1.332760 3.454940,1.665520 2.345982,2.004266 
z"/>
<path fill="#090909" opacity="1.000000" stroke="none" 
	d="
M101.000000,1.500000 
	C100.677040,1.898884 100.415733,1.711712 100.108032,1.219241 
	C100.333336,1.000000 100.666664,1.000000 101.000000,1.500000 
z"/>
<path fill="#FAFAFA" opacity="1.000000" stroke="none" 
	d="
M28.074219,49.000095 
	C28.074219,41.532913 28.074219,34.565681 28.074219,26.658642 
	C36.683979,27.112177 45.007198,26.945894 53.129925,28.141582 
	C61.980370,29.444391 67.950340,36.232708 68.970688,45.111698 
	C69.477692,49.523655 69.489426,54.133324 68.812302,58.512390 
	C67.209343,68.879005 59.006161,76.125183 48.089920,76.859932 
	C41.641098,77.293983 35.139187,76.939270 28.074219,76.939270 
	C28.074219,67.705025 28.074219,58.602535 28.074219,49.000095 
M45.286133,38.010715 
	C44.025005,38.097160 42.763878,38.183605 41.602917,38.263184 
	C41.602917,47.712151 41.602917,56.760220 41.602917,65.775955 
	C50.058266,66.251480 53.761532,64.148483 55.080250,57.611786 
	C55.757236,54.256054 55.863396,50.657703 55.495617,47.247940 
	C54.915466,41.869251 51.916290,38.402039 45.286133,38.010715 
z"/>
<path fill="#83B427" opacity="1.000000" stroke="none" 
	d="
M69.717232,69.504379 
	C70.888023,64.973442 73.720322,62.943802 77.872192,63.537014 
	C81.797798,64.097885 84.009712,66.732216 84.002487,70.810181 
	C83.996765,74.035721 80.175301,77.837463 77.059479,77.937950 
	C72.701416,78.078506 70.207466,75.362312 69.717232,69.504379 
z"/>
<path fill="#0C0C0C" opacity="1.000000" stroke="none" 
	d="
M45.715874,38.010670 
	C51.916290,38.402039 54.915466,41.869251 55.495617,47.247940 
	C55.863396,50.657703 55.757236,54.256054 55.080250,57.611786 
	C53.761532,64.148483 50.058266,66.251480 41.602917,65.775955 
	C41.602917,56.760220 41.602917,47.712151 41.602917,38.263184 
	C42.763878,38.183605 44.025005,38.097160 45.715874,38.010670 
z"/>
</svg>