<svg version="1.1" id="Layer_1" xmlns="http://www.w3.org/2000/svg" xmlns:xlink="http://www.w3.org/1999/xlink" x="0px" y="0px"
	 width="100%" viewBox="0 0 100 100" enable-background="new 0 0 100 100" xml:space="preserve">
<path fill="#FFFFFF" opacity="1.000000" stroke="none" 
	d="
M101.000000,76.000000 
	C101.000000,84.308952 101.000000,92.617912 101.000000,100.963432 
	C67.788589,100.963432 34.577133,100.963432 1.000000,100.963432 
	C1.000000,92.982826 1.000000,84.960091 1.464748,76.471207 
	C6.285277,75.947693 10.641057,75.890335 15.420645,75.910995 
	C17.563719,75.936508 19.282984,75.883987 21.425335,75.907845 
	C23.563974,75.934395 25.279533,75.884575 27.457458,75.911209 
	C33.276360,75.937492 38.632896,75.887314 44.444778,75.918396 
	C48.602573,75.946861 52.305027,75.894089 56.430275,75.916252 
	C58.566570,75.937492 60.280071,75.883789 62.438705,75.909470 
	C65.592499,75.934402 68.301155,75.879951 71.472382,75.901596 
	C81.623299,75.985130 91.311646,75.992569 101.000000,76.000000 
z"/>
<path fill="#FFFFFF" opacity="1.000000" stroke="none" 
	d="
M1.000000,26.000000 
	C1.000000,17.691212 1.000000,9.382424 1.000000,1.036819 
	C34.210571,1.036819 67.421188,1.036819 101.000000,1.036819 
	C101.000000,8.683620 101.000000,16.373117 100.539062,24.530212 
	C96.383560,25.051844 92.689003,25.105877 88.533813,25.085722 
	C83.381088,25.064384 78.689003,25.117237 73.533897,25.094116 
	C62.383537,25.067160 51.696190,25.116179 40.548195,25.084461 
	C35.388031,25.060331 30.688517,25.116938 25.595354,25.097961 
	C24.137352,25.066612 23.072996,25.110846 21.548656,25.080198 
	C16.724255,25.058699 12.359837,25.112080 7.597847,25.091469 
	C5.133517,25.344984 3.066759,25.672493 1.000000,26.000000 
z"/>
<path fill="#141414" opacity="1.000000" stroke="none" 
	d="
M1.000000,42.000000 
	C1.000000,41.555664 1.000000,41.111328 1.391503,40.336426 
	C3.520794,40.338837 5.258582,40.671814 7.035840,41.363796 
	C8.870605,45.662968 12.010809,47.454861 15.791077,45.262135 
	C20.082863,42.772705 23.964815,39.512924 27.795374,36.313217 
	C30.632757,33.943119 31.416229,35.411823 31.624950,38.007385 
	C29.011175,39.244137 26.822674,40.586060 24.517023,41.681374 
	C21.271290,43.223289 21.526102,45.745979 23.495300,47.573944 
	C25.891378,49.798168 29.012568,51.241264 31.890110,53.395935 
	C34.015152,57.298328 36.070171,60.827045 38.212971,64.565643 
	C38.520325,65.186249 38.739899,65.596962 38.651436,66.165115 
	C36.500870,66.373093 34.351299,67.058060 32.878269,66.345139 
	C29.579050,64.748383 26.969278,64.255188 24.699413,67.854660 
	C20.460505,62.742847 16.522467,57.782215 9.999249,55.752815 
	C9.998452,55.335857 9.998063,55.169071 9.998735,54.749310 
	C10.000383,54.327679 10.000967,54.159023 10.340861,53.940628 
	C10.947941,52.977852 11.720161,51.530666 11.405930,51.233906 
	C8.036025,48.051384 4.494493,45.050594 1.000000,42.000000 
z"/>
<path fill="#101010" opacity="1.000000" stroke="none" 
	d="
M73.996910,25.170090 
	C78.689003,25.117237 83.381088,25.064384 88.476540,25.412426 
	C86.704506,28.264006 84.342072,30.580656 82.443726,33.229858 
	C81.659622,34.324100 81.132904,36.690750 81.758789,37.517536 
	C84.358093,40.951191 87.441795,44.018150 90.371742,47.246178 
	C96.267914,42.988949 90.386986,38.696728 88.840706,33.484001 
	C92.703003,35.253372 95.321396,39.284088 99.093437,34.947308 
	C97.491173,34.233025 96.392143,33.743080 94.716934,32.996281 
	C97.421249,31.069361 95.972679,25.997709 101.000000,27.000000 
	C101.000000,32.688042 101.000000,38.376080 100.665451,44.581696 
	C99.594673,45.897503 98.858444,46.695736 98.093987,47.524570 
	C96.994263,46.796223 95.874184,46.054398 94.650024,45.243645 
	C92.361336,53.074780 92.365181,53.065922 85.492928,50.080631 
	C85.066360,49.895332 84.506569,50.016735 83.863579,49.674492 
	C82.169006,44.650906 78.800285,42.730183 73.856407,42.666035 
	C73.086197,40.611755 72.459854,38.889458 71.833511,37.167164 
	C71.366875,37.186306 70.900238,37.205448 70.433601,37.224590 
	C69.919136,39.161648 69.404671,41.098705 68.641701,42.833271 
	C67.556427,41.100712 66.719673,39.570641 66.170410,37.859528 
	C68.522232,35.431072 70.586555,33.183655 72.592758,30.999512 
	C74.484734,32.103607 75.903412,32.931507 77.322090,33.759403 
	C77.553604,33.532036 77.785110,33.304668 78.016617,33.077301 
	C76.676720,30.441565 75.336815,27.805826 73.996910,25.170090 
z"/>
<path fill="#161616" opacity="1.000000" stroke="none" 
	d="
M68.890213,43.035759 
	C69.404671,41.098705 69.919136,39.161648 70.433601,37.224590 
	C70.900238,37.205448 71.366875,37.186306 71.833511,37.167164 
	C72.459854,38.889458 73.086197,40.611755 73.709236,43.006790 
	C72.738052,48.609901 78.138046,51.920246 84.008759,49.995445 
	C84.506569,50.016735 85.066360,49.895332 85.492928,50.080631 
	C92.365181,53.065922 92.361336,53.074780 94.650024,45.243645 
	C95.874184,46.054398 96.994263,46.796223 98.093987,47.524570 
	C98.858444,46.695736 99.594673,45.897503 100.665451,45.049633 
	C101.000000,50.688042 101.000000,56.376080 100.649826,62.498199 
	C95.037659,64.359489 89.775658,65.786713 85.423050,66.967270 
	C83.398949,64.747147 81.696732,62.880070 79.998230,61.006241 
	C80.001953,60.999485 80.013031,60.993629 80.352234,60.958870 
	C81.275879,59.985703 82.244995,59.089779 82.354424,58.098915 
	C82.517693,56.620529 82.074974,55.075222 81.877991,53.459248 
	C77.800415,54.589336 73.464851,55.790924 69.147827,56.584919 
	C69.074303,51.796803 68.982254,47.416283 68.890213,43.035759 
z"/>
<path fill="#0E0E0E" opacity="1.000000" stroke="none" 
	d="
M31.997940,38.002491 
	C31.416229,35.411823 30.632757,33.943119 27.795374,36.313217 
	C23.964815,39.512924 20.082863,42.772705 15.791077,45.262135 
	C12.010809,47.454861 8.870605,45.662968 7.401832,41.357315 
	C8.777317,40.436775 9.826283,39.881718 10.875248,39.326660 
	C10.798671,38.887493 10.722095,38.448326 10.645517,38.009159 
	C7.430345,37.006107 4.215172,36.003056 1.000000,35.000000 
	C1.000000,32.299988 1.000000,29.599974 1.000000,26.449980 
	C3.066759,25.672493 5.133517,25.344984 7.599307,25.496677 
	C7.998074,26.641064 8.039611,27.309309 7.991156,27.970963 
	C7.433875,35.580688 12.351746,38.911110 19.387840,35.717472 
	C22.238613,34.423527 25.137045,33.234589 28.430464,31.997311 
	C30.240492,31.996189 31.633848,31.995621 33.390827,32.002434 
	C35.189114,33.386093 36.623779,34.762363 37.910210,36.417408 
	C36.555401,37.907257 35.348824,39.118340 34.015732,40.022427 
	C33.258793,39.144455 32.628365,38.573471 31.997940,38.002491 
z"/>
<path fill="#1B1B1B" opacity="1.000000" stroke="none" 
	d="
M79.994507,61.012997 
	C81.696732,62.880070 83.398949,64.747147 85.423050,66.967270 
	C89.775658,65.786713 95.037659,64.359489 100.649826,62.966137 
	C101.000000,63.444447 101.000000,63.888889 100.629936,64.673401 
	C97.637886,67.269890 95.015892,69.526314 92.375237,71.798813 
	C84.843849,67.250748 77.844070,74.490730 70.205460,72.305367 
	C70.575043,73.922829 70.792427,74.874168 71.009811,75.825508 
	C68.301155,75.879951 65.592499,75.934402 62.485783,75.567055 
	C63.029751,73.803818 63.968155,72.459816 64.914619,71.121521 
	C66.524590,68.845039 68.139633,66.572144 69.752541,64.297737 
	C69.441483,63.834000 69.130432,63.370262 68.819374,62.906525 
	C70.600418,63.316490 72.381462,63.726460 73.126282,63.897903 
	C75.833511,62.760769 77.914009,61.886883 79.994507,61.012997 
z"/>
<path fill="#161616" opacity="1.000000" stroke="none" 
	d="
M101.000000,26.666668 
	C95.972679,25.997709 97.421249,31.069361 94.716934,32.996281 
	C96.392143,33.743080 97.491173,34.233025 99.093437,34.947308 
	C95.321396,39.284088 92.703003,35.253372 88.840706,33.484001 
	C90.386986,38.696728 96.267914,42.988949 90.371742,47.246178 
	C87.441795,44.018150 84.358093,40.951191 81.758789,37.517536 
	C81.132904,36.690750 81.659622,34.324100 82.443726,33.229858 
	C84.342072,30.580656 86.704506,28.264006 88.937164,25.486616 
	C92.689003,25.105877 96.383560,25.051844 100.539062,24.998905 
	C101.000000,25.444445 101.000000,25.888889 101.000000,26.666668 
z"/>
<path fill="#0E0E0E" opacity="1.000000" stroke="none" 
	d="
M71.472382,75.901596 
	C70.792427,74.874168 70.575043,73.922829 70.205460,72.305367 
	C77.844070,74.490730 84.843849,67.250748 92.375237,71.798813 
	C95.015892,69.526314 97.637886,67.269890 100.629936,65.006729 
	C101.000000,68.361290 101.000000,71.722572 101.000000,75.541931 
	C91.311646,75.992569 81.623299,75.985130 71.472382,75.901596 
z"/>
<path fill="#080808" opacity="1.000000" stroke="none" 
	d="
M14.996837,75.832977 
	C10.641057,75.890335 6.285277,75.947693 1.464748,76.002525 
	C1.000000,71.643097 1.000000,67.286201 1.323222,62.490746 
	C2.765310,62.035503 3.884175,62.018822 5.372203,62.002403 
	C6.736824,62.239388 7.732282,62.476097 9.003495,62.778385 
	C6.906634,66.251282 5.093990,69.253448 2.830838,73.001770 
	C6.274500,73.001770 8.934321,72.697388 11.469020,73.128555 
	C12.760922,73.348312 13.828086,74.889244 14.996837,75.832977 
z"/>
<path fill="#101010" opacity="1.000000" stroke="none" 
	d="
M5.003039,62.002136 
	C3.884175,62.018822 2.765310,62.035503 1.323222,62.026093 
	C1.000000,57.643101 1.000000,53.286201 1.357729,48.502045 
	C4.477489,50.046646 7.239520,52.018509 10.001551,53.990372 
	C10.000967,54.159023 10.000383,54.327679 9.572495,54.748657 
	C7.556808,55.088158 5.968427,55.175339 3.786248,55.295109 
	C4.261920,57.917038 4.632480,59.959587 5.003039,62.002136 
z"/>
<path fill="#080808" opacity="1.000000" stroke="none" 
	d="
M10.340860,53.940628 
	C7.239520,52.018509 4.477489,50.046646 1.357729,48.037392 
	C1.000000,46.285641 1.000000,44.571285 1.000000,42.428463 
	C4.494493,45.050594 8.036025,48.051384 11.405930,51.233906 
	C11.720161,51.530666 10.947941,52.977852 10.340860,53.940628 
z"/>
<path fill="#080808" opacity="1.000000" stroke="none" 
	d="
M1.000000,35.416664 
	C4.215172,36.003056 7.430345,37.006107 10.645517,38.009159 
	C10.722095,38.448326 10.798671,38.887493 10.875248,39.326660 
	C9.826283,39.881718 8.777317,40.436775 7.362360,40.998314 
	C5.258582,40.671814 3.520794,40.338837 1.391503,40.002930 
	C1.000000,38.611111 1.000000,37.222221 1.000000,35.416664 
z"/>
<path fill="#0B0B0B" opacity="1.000000" stroke="none" 
	d="
M5.372202,62.002403 
	C4.632480,59.959587 4.261920,57.917038 3.786248,55.295109 
	C5.968427,55.175339 7.556808,55.088158 9.571431,55.001633 
	C9.998063,55.169071 9.998452,55.335857 10.000065,56.142174 
	C11.111581,58.816860 11.928340,61.099201 13.391745,62.836994 
	C16.693386,66.757683 21.923885,69.455643 21.002251,75.831474 
	C19.282984,75.883987 17.563719,75.936508 15.420644,75.910995 
	C13.828086,74.889244 12.760922,73.348312 11.469020,73.128555 
	C8.934321,72.697388 6.274500,73.001770 2.830838,73.001770 
	C5.093990,69.253448 6.906634,66.251282 9.003495,62.778385 
	C7.732282,62.476097 6.736824,62.239388 5.372202,62.002403 
z"/>
<path fill="#0E0E0E" opacity="1.000000" stroke="none" 
	d="
M24.999329,68.007019 
	C26.969278,64.255188 29.579050,64.748383 32.878269,66.345139 
	C34.351299,67.058060 36.500870,66.373093 38.862289,66.182541 
	C39.381176,66.042549 39.803249,66.054344 40.108841,66.151161 
	C41.281204,66.819389 42.147968,67.390793 42.977741,68.268982 
	C41.997620,70.036736 41.054493,71.497711 40.221001,72.788857 
	C41.729862,74.009369 42.859646,74.923256 43.989433,75.837143 
	C38.632896,75.887314 33.276360,75.937492 27.407341,75.550339 
	C26.263016,72.744347 25.631172,70.375679 24.999329,68.007019 
z"/>
<path fill="#121212" opacity="1.000000" stroke="none" 
	d="
M79.998230,61.006241 
	C77.914009,61.886883 75.833511,62.760769 73.126282,63.897903 
	C72.381462,63.726460 70.600418,63.316490 68.819374,62.906525 
	C69.130432,63.370262 69.441483,63.834000 69.752541,64.297737 
	C68.139633,66.572144 66.524590,68.845039 64.914619,71.121521 
	C63.968155,72.459816 63.029751,73.803818 62.040649,75.487671 
	C60.280071,75.883789 58.566570,75.937492 56.506874,75.568085 
	C57.459831,74.305145 58.758984,73.465309 60.232056,72.513046 
	C58.153076,71.183434 56.588825,70.183022 55.338211,69.003723 
	C58.451427,67.209801 61.251007,65.594757 64.022186,63.986145 
	C63.993793,63.992580 63.981403,64.049477 64.270683,63.901451 
	C65.049820,62.834419 65.539680,61.915417 66.014145,60.994095 
	C65.998741,60.991776 65.998756,61.021851 66.263931,60.952049 
	C66.976318,60.567875 67.423538,60.253502 68.317932,59.958000 
	C71.459610,59.562351 74.150406,58.899158 76.850517,58.858772 
	C77.893814,58.843166 78.958237,60.240181 80.013031,60.993629 
	C80.013031,60.993629 80.001953,60.999485 79.998230,61.006241 
z"/>
<path fill="#080808" opacity="1.000000" stroke="none" 
	d="
M24.699411,67.854660 
	C25.631172,70.375679 26.263016,72.744347 26.944973,75.473877 
	C25.279533,75.884575 23.563974,75.934395 21.425335,75.907845 
	C21.923885,69.455643 16.693386,66.757683 13.391745,62.836994 
	C11.928340,61.099201 11.111581,58.816860 10.000472,56.392349 
	C16.522467,57.782215 20.460505,62.742847 24.699411,67.854660 
z"/>
<path fill="#1B1B1B" opacity="1.000000" stroke="none" 
	d="
M55.024574,69.182602 
	C56.588825,70.183022 58.153076,71.183434 60.232056,72.513046 
	C58.758984,73.465309 57.459831,74.305145 56.084076,75.493149 
	C52.305027,75.894089 48.602573,75.946861 44.444778,75.918396 
	C42.859646,74.923256 41.729862,74.009369 40.221001,72.788857 
	C41.054493,71.497711 41.997620,70.036736 43.392754,68.298630 
	C47.571365,68.408531 51.297970,68.795563 55.024574,69.182602 
z"/>
<path fill="#0B0B0B" opacity="1.000000" stroke="none" 
	d="
M73.533897,25.094116 
	C75.336815,27.805826 76.676720,30.441565 78.016617,33.077301 
	C77.785110,33.304668 77.553604,33.532036 77.322090,33.759403 
	C75.903412,32.931507 74.484734,32.103607 72.592758,30.999512 
	C70.586555,33.183655 68.522232,35.431072 65.879364,37.697342 
	C60.877457,35.678848 56.454086,33.641502 51.927116,31.275833 
	C49.551903,29.965164 47.355602,28.670193 44.984921,28.099125 
	C43.079018,27.640013 40.790905,28.298653 41.008842,25.165197 
	C51.696190,25.116179 62.383537,25.067160 73.533897,25.094116 
z"/>
<path fill="#141414" opacity="1.000000" stroke="none" 
	d="
M28.013790,31.997864 
	C25.137045,33.234589 22.238613,34.423527 19.387840,35.717472 
	C12.351746,38.911110 7.433875,35.580688 7.991156,27.970963 
	C8.039611,27.309309 7.998074,26.641064 7.996878,25.570671 
	C12.359837,25.112080 16.724255,25.058699 21.589855,25.418219 
	C24.065290,27.886702 26.039541,29.942282 28.013790,31.997864 
z"/>
<path fill="#161616" opacity="1.000000" stroke="none" 
	d="
M40.548195,25.084461 
	C40.790905,28.298653 43.079018,27.640013 44.984921,28.099125 
	C47.355602,28.670193 49.551903,29.965164 51.501976,31.378817 
	C46.806442,33.252964 42.432442,34.695801 38.058441,36.138638 
	C36.623779,34.762363 35.189114,33.386093 33.331554,31.656738 
	C30.602104,29.260288 28.295553,27.216917 25.989002,25.173544 
	C30.688517,25.116938 35.388031,25.060331 40.548195,25.084461 
z"/>
<path fill="#080808" opacity="1.000000" stroke="none" 
	d="
M25.595354,25.097961 
	C28.295553,27.216917 30.602104,29.260288 32.967930,31.649357 
	C31.633848,31.995621 30.240492,31.996189 28.430464,31.997311 
	C26.039541,29.942282 24.065290,27.886702 22.049841,25.493101 
	C23.072996,25.110846 24.137352,25.066612 25.595354,25.097961 
z"/>
<path fill="#5A5A5A" opacity="1.000000" stroke="none" 
	d="
M37.910210,36.417408 
	C42.432442,34.695801 46.806442,33.252964 51.605579,31.707142 
	C56.454086,33.641502 60.877457,35.678848 65.591873,37.878380 
	C66.719673,39.570641 67.556427,41.100712 68.641693,42.833271 
	C68.982254,47.416283 69.074303,51.796803 68.980118,56.863678 
	C68.486183,58.346394 68.178467,59.142757 67.870758,59.939125 
	C67.423538,60.253502 66.976318,60.567875 66.188553,60.591961 
	C64.777664,59.415497 63.748375,58.473091 62.628197,57.655155 
	C60.464535,56.075291 58.249584,54.565662 56.417480,52.969906 
	C60.354248,51.581486 63.929436,50.250072 67.964264,48.747490 
	C67.288361,47.091614 66.450485,45.038944 65.762520,43.353527 
	C63.347515,44.844784 61.562855,45.946804 59.861809,46.661091 
	C59.681755,44.788818 59.418091,43.304279 59.101604,41.472382 
	C57.069271,37.404350 53.990265,35.385178 49.819435,36.362942 
	C45.478233,37.380646 42.535210,39.954643 42.765709,45.014656 
	C42.793079,45.615475 41.705387,46.267090 40.935738,46.599686 
	C39.797787,44.959877 38.858669,43.615540 37.919556,42.271202 
	C36.772057,44.152069 35.624561,46.032936 34.042095,48.626762 
	C36.832634,48.837799 38.399006,48.956257 40.194817,49.319012 
	C42.798512,51.018600 45.172768,52.473896 47.296036,54.205189 
	C44.806133,55.521706 42.480068,57.574474 40.346558,57.390778 
	C35.983944,57.015156 35.212460,57.758209 37.644333,61.460617 
	C38.135471,62.208347 37.981659,63.379707 38.125191,64.355759 
	C36.070171,60.827045 34.015152,57.298328 31.938694,52.955841 
	C32.658920,48.204517 33.400581,44.266968 34.142242,40.329418 
	C35.348824,39.118340 36.555401,37.907257 37.910210,36.417408 
z"/>
<path fill="#1D1D1D" opacity="1.000000" stroke="none" 
	d="
M38.212971,64.565643 
	C37.981659,63.379707 38.135471,62.208347 37.644333,61.460617 
	C35.212460,57.758209 35.983944,57.015156 40.346558,57.390778 
	C42.480068,57.574474 44.806133,55.521706 47.600441,54.218994 
	C49.557362,53.347569 50.958885,52.738342 52.817307,51.930504 
	C53.397797,52.127026 54.726849,52.576973 56.055897,53.026917 
	C58.249584,54.565662 60.464535,56.075291 62.628197,57.655155 
	C63.748375,58.473091 64.777664,59.415497 65.923386,60.661758 
	C65.998756,61.021851 65.998741,60.991776 65.642548,60.968620 
	C64.851372,61.980137 64.416389,63.014805 63.981403,64.049477 
	C63.981403,64.049477 63.993793,63.992580 63.642632,63.987968 
	C62.523380,63.522526 61.473419,63.246254 61.031731,62.571697 
	C57.454700,57.108734 52.147678,55.888699 46.409847,58.088348 
	C42.335548,59.650261 42.042351,63.465347 39.803249,66.054344 
	C39.803249,66.054344 39.381176,66.042549 39.170326,66.025116 
	C38.739899,65.596962 38.520325,65.186249 38.212971,64.565643 
z"/>
<path fill="#1B1B1B" opacity="1.000000" stroke="none" 
	d="
M34.015732,40.022427 
	C33.400581,44.266968 32.658920,48.204517 31.868675,52.582161 
	C29.012568,51.241264 25.891378,49.798168 23.495300,47.573944 
	C21.526102,45.745979 21.271290,43.223289 24.517023,41.681374 
	C26.822674,40.586060 29.011175,39.244137 31.624950,38.007385 
	C32.628365,38.573471 33.258793,39.144455 34.015732,40.022427 
z"/>
<path fill="#1D1D1D" opacity="1.000000" stroke="none" 
	d="
M83.863579,49.674492 
	C78.138046,51.920246 72.738052,48.609901 73.853104,43.338768 
	C78.800285,42.730183 82.169006,44.650906 83.863579,49.674492 
z"/>
<path fill="#1B1B1B" opacity="1.000000" stroke="none" 
	d="
M68.317932,59.958000 
	C68.178467,59.142757 68.486183,58.346394 68.961594,57.271271 
	C73.464851,55.790924 77.800415,54.589336 81.877991,53.459248 
	C82.074974,55.075222 82.517693,56.620529 82.354424,58.098915 
	C82.244995,59.089779 81.275879,59.985703 80.352234,60.958866 
	C78.958237,60.240181 77.893814,58.843166 76.850517,58.858772 
	C74.150406,58.899158 71.459610,59.562351 68.317932,59.958000 
z"/>
<path fill="#5B5B5B" opacity="1.000000" stroke="none" 
	d="
M40.108841,66.151161 
	C42.042351,63.465347 42.335548,59.650261 46.409847,58.088348 
	C52.147678,55.888699 57.454700,57.108734 61.031731,62.571697 
	C61.473419,63.246254 62.523380,63.522526 63.671028,63.981537 
	C61.251007,65.594757 58.451427,67.209801 55.338211,69.003723 
	C51.297970,68.795563 47.571365,68.408531 43.429749,67.991852 
	C42.147968,67.390793 41.281204,66.819389 40.108841,66.151161 
z"/>
<path fill="#5A5A5A" opacity="1.000000" stroke="none" 
	d="
M64.270683,63.901451 
	C64.416389,63.014805 64.851372,61.980137 65.657959,60.970940 
	C65.539680,61.915417 65.049820,62.834419 64.270683,63.901451 
z"/>
<path fill="#121212" opacity="1.000000" stroke="none" 
	d="
M56.417480,52.969910 
	C54.726849,52.576973 53.397797,52.127026 52.817307,51.930504 
	C50.958885,52.738342 49.557362,53.347569 47.851433,53.942993 
	C45.172768,52.473896 42.798512,51.018600 40.227348,48.991982 
	C40.398487,47.912159 40.766529,47.403656 41.134571,46.895157 
	C41.705387,46.267090 42.793079,45.615475 42.765709,45.014656 
	C42.535210,39.954643 45.478233,37.380646 49.819435,36.362942 
	C53.990265,35.385178 57.069271,37.404350 58.929123,41.791634 
	C57.538261,44.646530 56.267067,46.834805 54.995872,49.023079 
	C55.293392,49.174114 55.590912,49.325146 55.888432,49.476181 
	C57.185017,48.667065 58.481606,47.857944 59.778191,47.048828 
	C61.562855,45.946804 63.347515,44.844784 65.762520,43.353527 
	C66.450485,45.038944 67.288361,47.091614 67.964264,48.747490 
	C63.929436,50.250072 60.354248,51.581486 56.417480,52.969910 
z"/>
<path fill="#1B1B1B" opacity="1.000000" stroke="none" 
	d="
M40.935738,46.599686 
	C40.766529,47.403656 40.398487,47.912159 39.997910,48.747688 
	C38.399006,48.956257 36.832634,48.837799 34.042095,48.626762 
	C35.624561,46.032936 36.772057,44.152069 37.919556,42.271202 
	C38.858669,43.615540 39.797787,44.959877 40.935738,46.599686 
z"/>
<path fill="#1D1D1D" opacity="1.000000" stroke="none" 
	d="
M59.861809,46.661091 
	C58.481606,47.857944 57.185017,48.667065 55.888432,49.476181 
	C55.590912,49.325146 55.293392,49.174114 54.995872,49.023079 
	C56.267067,46.834805 57.538261,44.646530 58.981941,42.139000 
	C59.418091,43.304279 59.681755,44.788818 59.861809,46.661091 
z"/>
</svg>