<svg version="1.1" id="Layer_1" xmlns="http://www.w3.org/2000/svg" xmlns:xlink="http://www.w3.org/1999/xlink" x="0px" y="0px"
	 width="100%" viewBox="0 0 100 100" enable-background="new 0 0 100 100" xml:space="preserve">
<path fill="#FEFEFE" opacity="1.000000" stroke="none" 
	d="
M88.000000,1.000000 
	C92.321747,1.000000 96.643486,1.000000 100.982620,1.000000 
	C100.982620,34.232586 100.982620,67.465179 100.982620,101.000000 
	C84.313652,101.000000 67.625488,101.000000 50.580856,100.648308 
	C56.195377,96.881149 62.166359,93.465683 68.362167,90.024673 
	C68.586990,89.999138 69.011566,89.842491 69.276184,89.891602 
	C69.770439,89.688347 70.000069,89.435974 70.171318,89.166107 
	C70.112938,89.148621 70.135399,89.268417 70.436249,89.234360 
	C71.180870,88.819374 71.624641,88.438438 72.031311,88.034958 
	C71.994217,88.012405 72.056839,88.073647 72.351105,88.030472 
	C73.213264,87.472084 73.781151,86.956863 74.360725,86.277893 
	C74.372414,86.114151 74.314125,86.437050 74.608963,86.386826 
	C75.312279,85.924057 75.720764,85.511513 76.083611,85.083496 
	C76.037971,85.068016 76.074532,85.157196 76.347519,85.099876 
	C76.837143,84.756889 77.053772,84.471222 77.198524,84.174637 
	C77.126648,84.163712 77.236519,84.258949 77.539246,84.164215 
	C78.867332,83.045769 79.892677,82.022057 81.180969,80.860046 
	C81.746490,80.222771 82.049065,79.723808 82.556870,79.194542 
	C82.762085,79.164246 83.156540,79.036362 83.356949,78.910461 
	C83.802437,78.560562 83.940712,78.283302 83.982300,77.965897 
	C83.992416,77.979034 83.958374,77.968201 84.353821,77.976814 
	C85.784912,76.970024 87.484459,76.087189 87.719131,74.911850 
	C88.220093,72.402954 87.818474,69.730118 88.041130,67.146370 
	C88.769241,58.696777 87.377571,57.067055 79.046616,56.986938 
	C79.019981,57.004314 79.014000,56.940994 78.861023,56.712608 
	C78.371277,56.362411 78.034508,56.240601 77.488632,56.088783 
	C77.279510,56.058777 76.976807,55.763992 76.841972,55.570770 
	C76.460564,55.153316 76.170815,55.049313 75.607208,55.040478 
	C75.376541,55.015423 75.022812,54.715061 74.956100,54.401703 
	C73.966721,53.705898 73.044052,53.323448 72.086899,52.959377 
	C72.052422,52.977760 72.038673,52.900837 71.985611,52.534771 
	C71.873459,51.929268 71.814362,51.689835 71.699173,51.335011 
	C71.643082,51.219624 71.798866,51.015732 72.159477,50.850697 
	C75.146210,47.143654 74.424294,43.617752 72.327225,39.739574 
	C72.111618,38.616608 72.037941,37.851849 71.949158,36.889290 
	C71.862732,36.422981 71.710609,36.212997 71.313873,35.760818 
	C71.083664,35.011055 71.017273,34.562023 70.975937,33.701797 
	C70.656837,27.436401 66.868950,23.099361 61.720592,22.925531 
	C60.716675,22.529366 60.002739,22.204439 59.050594,21.597830 
	C56.951653,20.740299 55.090916,20.164454 53.177586,19.665306 
	C53.124989,19.742002 53.285229,19.647562 53.125267,19.443775 
	C52.649391,19.097441 52.333477,18.954895 51.707718,18.563623 
	C48.497387,17.911966 45.601105,17.292654 42.693878,17.236126 
	C41.805729,17.218855 40.887508,18.748159 39.694916,19.717710 
	C38.980968,19.927549 38.555161,19.988871 37.909904,20.078421 
	C37.396786,20.208111 37.177574,20.396296 36.806450,20.808792 
	C36.405247,20.971279 36.230412,20.996183 35.845558,21.065052 
	C35.358894,21.226030 35.156281,21.420271 34.834541,21.837908 
	C34.641388,21.984077 34.162811,22.059317 33.911690,22.113342 
	C33.430660,22.411949 33.200752,22.656530 32.971924,22.939037 
	C32.973007,22.976961 32.897793,22.966667 32.518757,22.968143 
	C28.540585,22.580454 25.084196,27.602530 21.010143,22.545174 
	C21.010143,19.341869 21.010143,15.430299 21.443253,11.432358 
	C23.633844,11.419070 25.391327,11.492152 27.413483,11.718534 
	C29.071236,11.763610 30.464315,11.655387 32.323776,11.445080 
	C44.220726,11.412004 55.651299,11.481013 67.170578,11.641159 
	C67.259285,11.732296 67.623123,11.769194 67.623123,11.769194 
	C67.623123,11.769194 67.921700,11.548953 68.318260,11.446905 
	C69.523483,11.417552 70.332138,11.490248 71.384270,11.735548 
	C73.167404,13.616735 74.707069,15.325317 76.380676,17.389347 
	C76.427475,18.487213 76.340332,19.229631 75.953781,20.150448 
	C75.843262,23.228500 76.032135,26.128149 76.356506,29.404800 
	C76.410378,30.833673 76.328751,31.885546 75.948761,32.972984 
	C72.269272,34.876293 74.494896,35.924862 76.371582,37.435379 
	C76.418915,38.639668 76.334633,39.452221 76.137451,40.590263 
	C76.083359,44.905434 81.092163,49.794403 85.050339,49.594334 
	C85.399368,49.576687 85.700233,48.606323 86.100235,47.803818 
	C86.268753,47.362652 86.360497,47.196136 86.754929,46.938911 
	C90.218010,42.760433 86.152374,39.043430 86.367950,34.758102 
	C86.336769,33.947392 86.392601,33.480873 86.638611,32.649529 
	C87.219193,21.856466 87.609596,11.428233 88.000000,1.000000 
M26.706314,20.083735 
	C26.415430,19.151445 26.124544,18.219156 25.833658,17.286867 
	C25.269697,17.683025 24.705736,18.079184 24.141777,18.475344 
	C24.828545,19.189442 25.515310,19.903542 26.706314,20.083735 
z"/>
<path fill="#FCF8F6" opacity="1.000000" stroke="none" 
	d="
M44.000000,101.000000 
	C29.713284,101.000000 15.426568,101.000000 1.069926,101.000000 
	C1.069926,67.666771 1.069926,34.333405 1.069926,1.000000 
	C3.359033,1.000000 5.684783,1.000000 8.486977,1.251024 
	C8.986263,1.668278 9.009105,1.834509 8.921888,2.459715 
	C8.782870,9.671862 8.669372,16.426378 8.776813,23.177380 
	C8.808763,25.184942 9.461137,27.182632 10.021284,29.455563 
	C12.143905,30.745010 14.074473,31.763741 16.303196,32.981995 
	C18.796761,34.465172 20.992168,35.748825 23.103422,37.437675 
	C18.567610,57.463345 36.529137,71.532669 50.771118,68.438522 
	C50.858879,68.463669 50.989655,68.336250 51.382385,68.350098 
	C53.877903,67.598633 55.980694,66.833321 58.048042,66.044296 
	C58.012596,66.020599 58.035797,66.102661 58.340767,66.097282 
	C59.131130,65.753525 59.616528,65.415146 60.060314,65.046211 
	C60.018707,65.015656 60.065258,65.107819 60.379093,65.073448 
	C61.461700,64.363998 62.230476,63.688923 63.001045,63.008270 
	C63.002842,63.002689 63.014683,63.001324 63.327141,62.909401 
	C64.750343,62.240814 65.861084,61.664154 66.980034,61.048870 
	C66.988243,61.010246 66.926643,61.059658 67.087646,61.315865 
	C67.803513,61.784950 68.358376,61.997833 68.916061,62.163239 
	C68.918900,62.115761 68.831413,62.153122 68.987396,62.419357 
	C69.716827,62.886215 70.290291,63.086830 70.869354,63.230698 
	C70.874962,63.173954 70.774353,63.227646 70.929306,63.509350 
	C72.052902,64.203850 73.021553,64.616653 74.218414,65.293991 
	C78.167068,67.729683 76.821831,70.806725 75.611984,73.863556 
	C74.850830,74.272552 74.398888,74.622246 73.711899,75.059906 
	C73.306412,75.426170 73.135986,75.704468 72.718002,76.052498 
	C72.284775,76.397202 72.099091,76.672180 71.951782,76.966949 
	C71.990158,76.986732 71.947144,76.911858 71.676987,76.966377 
	C71.200691,77.308716 70.994545,77.596542 70.835617,77.863708 
	C70.882835,77.843063 70.806252,77.774078 70.474609,77.861023 
	C66.064018,80.608917 61.985065,83.269875 57.950470,85.955292 
	C57.994827,85.979744 57.933678,85.898964 57.603130,85.930862 
	C56.143970,86.610580 55.015358,87.258392 53.926102,87.929794 
	C53.965458,87.953384 53.950298,87.862869 53.645321,87.880569 
	C52.865299,88.242157 52.390259,88.586037 51.947670,88.957336 
	C51.980129,88.984756 51.965668,88.901016 51.637329,88.918297 
	C50.742210,89.243774 50.175426,89.551971 49.226364,89.904785 
	C47.555183,89.790726 46.101471,89.964188 45.004036,89.419640 
	C37.718288,85.804382 29.970093,83.118744 23.810884,77.334641 
	C20.049381,73.802223 17.471731,70.378059 18.128626,64.907112 
	C18.561686,61.300362 18.183659,57.597900 18.193903,53.938362 
	C18.216230,45.961018 17.219025,44.712845 8.709435,42.537418 
	C8.709435,49.930889 9.275697,57.284943 8.570349,64.514931 
	C7.625680,74.198013 11.751578,80.853333 19.302473,85.941811 
	C23.843483,89.001945 28.565567,91.796494 33.243801,94.648842 
	C36.798538,96.816177 40.412430,98.886505 44.000000,101.000000 
z"/>
<path fill="#EB4E34" opacity="1.000000" stroke="none" 
	d="
M44.428463,101.000000 
	C40.412430,98.886505 36.798538,96.816177 33.243801,94.648842 
	C28.565567,91.796494 23.843483,89.001945 19.302473,85.941811 
	C11.751578,80.853333 7.625680,74.198013 8.570349,64.514931 
	C9.275697,57.284943 8.709435,49.930889 8.709435,42.537418 
	C17.219025,44.712845 18.216230,45.961018 18.193903,53.938362 
	C18.183659,57.597900 18.561686,61.300362 18.128626,64.907112 
	C17.471731,70.378059 20.049381,73.802223 23.810884,77.334641 
	C29.970093,83.118744 37.718288,85.804382 45.004036,89.419640 
	C46.101471,89.964188 47.555183,89.790726 49.575214,89.930252 
	C50.859451,89.574402 51.412560,89.237709 51.965668,88.901016 
	C51.965668,88.901016 51.980129,88.984756 52.263557,88.960114 
	C53.014755,88.577934 53.482529,88.220406 53.950302,87.862869 
	C53.950298,87.862869 53.965458,87.953384 54.307121,87.968521 
	C57.174248,87.366798 57.554050,93.477409 61.358002,89.965904 
	C63.863171,89.967209 66.000252,90.008713 68.137337,90.050217 
	C62.166359,93.465683 56.195377,96.881149 50.112198,100.648308 
	C48.285641,101.000000 46.571285,101.000000 44.428463,101.000000 
M10.035162,66.807182 
	C10.374717,67.369354 10.714272,67.931519 11.504103,69.239166 
	C11.504103,62.071251 11.504103,55.878746 11.504103,49.686237 
	C11.007142,49.674610 10.510182,49.662987 10.013222,49.651360 
	C10.013222,55.084843 10.013222,60.518322 10.035162,66.807182 
z"/>
<path fill="#FFB6A2" opacity="1.000000" stroke="none" 
	d="
M9.031945,2.000740 
	C9.009105,1.834509 8.986263,1.668278 8.981710,1.251024 
	C34.354229,1.000000 59.708454,1.000000 85.526413,1.271847 
	C85.962814,1.722882 85.935478,1.902071 85.446922,2.056366 
	C59.667789,2.021229 34.349865,2.010984 9.031945,2.000740 
z"/>
<path fill="#FCF2EE" opacity="1.000000" stroke="none" 
	d="
M85.908142,2.081259 
	C85.935478,1.902071 85.962814,1.722882 85.995071,1.271847 
	C86.444443,1.000000 86.888893,1.000000 87.666672,1.000000 
	C87.609596,11.428233 87.219193,21.856466 86.523659,32.192688 
	C86.115067,22.094208 86.011604,12.087733 85.908142,2.081259 
z"/>
<path fill="#F24831" opacity="1.000000" stroke="none" 
	d="
M75.921211,73.804260 
	C76.821831,70.806725 78.167068,67.729683 74.400002,65.023727 
	C75.170013,63.652435 75.986664,62.815933 76.803314,61.979427 
	C76.580566,61.820141 76.357819,61.660851 76.135071,61.501560 
	C74.348167,62.076923 72.561264,62.652287 70.774353,63.227646 
	C70.774353,63.227646 70.874962,63.173954 70.761124,62.916145 
	C70.042000,62.489929 69.436707,62.321526 68.831413,62.153122 
	C68.831413,62.153122 68.918900,62.115761 68.794014,61.868076 
	C68.088303,61.433479 67.507469,61.246567 66.926643,61.059654 
	C66.926643,61.059658 66.988243,61.010246 66.796677,60.767475 
	C65.408310,61.350243 64.211494,62.175785 63.014683,63.001328 
	C63.014683,63.001324 63.002842,63.002689 62.641502,63.003990 
	C61.541862,63.706135 60.803558,64.406975 60.065258,65.107819 
	C60.065258,65.107819 60.018707,65.015656 59.743504,65.038010 
	C58.990799,65.407799 58.513294,65.755226 58.035797,66.102661 
	C58.035797,66.102661 58.012596,66.020599 57.613770,66.015648 
	C55.479759,66.011353 53.744576,66.012009 52.004135,66.005844 
	C51.998875,65.999031 51.986786,65.986763 51.988747,65.742821 
	C51.990711,65.498878 51.989021,65.010971 51.993946,65.006042 
	C51.998871,65.001106 52.010796,64.989166 52.347961,64.954689 
	C57.189507,63.400566 52.261963,61.406544 53.047974,59.681290 
	C53.148014,59.667728 53.335594,59.742424 53.725609,59.797138 
	C54.666569,59.431660 55.217514,59.011467 55.793613,58.664459 
	C55.818771,58.737644 55.671116,58.691238 55.958778,58.688568 
	C56.462013,58.388977 56.677582,58.092056 56.902466,57.846394 
	C56.911781,57.897655 56.819931,57.848434 57.175018,57.869698 
	C58.348087,56.926533 59.166077,55.962105 59.990768,54.997688 
	C59.997471,54.997700 59.996548,54.984329 60.223648,54.881302 
	C60.733776,54.567616 60.899300,54.287506 60.971008,53.970196 
	C60.994694,54.002449 60.933777,53.949844 61.179039,53.838875 
	C61.563950,53.408539 61.703606,53.089169 61.822754,52.761150 
	C61.802242,52.752502 61.781418,52.712841 62.149258,52.791634 
	C65.396622,52.893459 68.276138,52.916492 71.377510,52.954826 
	C71.599358,52.970123 72.038673,52.900837 72.038673,52.900837 
	C72.038673,52.900837 72.052422,52.977760 72.230026,53.216526 
	C73.279366,53.875214 74.151085,54.295135 75.022812,54.715061 
	C75.022812,54.715061 75.376541,55.015423 75.728882,55.251060 
	C76.329231,55.742313 76.627762,55.834747 76.976807,55.763992 
	C76.976807,55.763992 77.279510,56.058777 77.631500,56.328964 
	C78.326996,56.713097 78.670494,56.827045 79.014000,56.940994 
	C79.014000,56.940994 79.019981,57.004314 79.055908,57.152649 
	C79.091835,57.300987 79.123337,57.631496 79.131744,58.025593 
	C80.451958,58.925903 81.763756,59.432117 83.042633,59.963081 
	C83.009705,59.987831 83.033958,59.909100 83.172646,60.176613 
	C83.863892,60.630016 84.416458,60.815910 84.984818,60.995850 
	C85.000626,60.989899 85.007050,61.023052 85.086884,61.234299 
	C85.332535,61.711838 85.562347,61.899971 85.949341,62.330421 
	C85.987335,63.089638 85.932137,63.528381 85.526039,64.053406 
	C84.671242,65.119774 84.421692,66.585045 83.623383,67.003571 
	C76.945343,70.504562 81.718956,75.060982 82.351639,79.224838 
	C82.049065,79.723808 81.746490,80.222771 80.787308,80.858620 
	C77.743713,80.821983 76.640076,81.786606 77.236519,84.258949 
	C77.236519,84.258949 77.126648,84.163712 76.918297,84.217560 
	C76.498138,84.566666 76.286331,84.861931 76.074532,85.157196 
	C76.074532,85.157196 76.037971,85.068016 75.748428,85.081314 
	C75.077301,85.542099 74.695717,85.989571 74.314125,86.437050 
	C74.314125,86.437050 74.372414,86.114151 73.983841,86.135376 
	C73.065659,86.106590 72.536049,86.056587 72.001541,86.001587 
	C71.996643,85.996605 71.986519,85.986458 71.987823,85.569977 
	C71.594833,82.693687 71.200546,80.233887 70.806259,77.774078 
	C70.806252,77.774078 70.882835,77.843063 71.099411,77.798630 
	C71.526382,77.473419 71.736763,77.192642 71.947144,76.911858 
	C71.947144,76.911858 71.990158,76.986732 72.187134,76.879990 
	C72.577919,76.509758 72.771736,76.246269 72.965553,75.982773 
	C73.135986,75.704468 73.306412,75.426170 74.054741,75.071732 
	C75.089653,75.002716 75.546669,75.009827 75.854187,75.322525 
	C75.187782,76.858208 74.670860,78.088318 74.153946,79.318420 
	C74.666451,79.560120 75.178955,79.801811 75.691460,80.043510 
	C76.949577,78.156586 78.207687,76.269653 79.465805,74.382729 
	C79.144287,74.137321 78.822769,73.891922 78.501251,73.646515 
	C77.673225,74.099037 76.845200,74.551552 76.000465,74.703529 
	C75.962921,74.203423 75.942070,74.003845 75.921211,73.804260 
M71.478241,59.973061 
	C71.750839,59.856163 72.023438,59.739269 72.296043,59.622379 
	C72.209496,59.500320 72.122940,59.378262 72.036392,59.256203 
	C71.690010,59.503429 71.343636,59.750660 70.723862,60.107075 
	C70.816628,60.072304 70.909386,60.037537 71.478241,59.973061 
M62.315830,58.011127 
	C61.705444,58.335354 61.095058,58.659580 60.484665,58.983803 
	C60.780762,59.264629 61.076859,59.545460 61.372959,59.826286 
	C61.915257,59.217472 62.457550,58.608662 63.566277,57.927174 
	C63.888214,57.623386 64.210152,57.319599 64.532089,57.015816 
	C64.323357,56.835182 64.114632,56.654549 63.905899,56.473915 
	C63.603985,56.982658 63.302067,57.491405 62.315830,58.011127 
z"/>
<path fill="#E54C34" opacity="1.000000" stroke="none" 
	d="
M85.446930,2.056366 
	C86.011604,12.087733 86.115067,22.094208 86.333481,32.557518 
	C86.392601,33.480873 86.336769,33.947392 86.252914,35.198250 
	C86.300674,39.664940 86.376457,43.347282 86.452232,47.029625 
	C86.360497,47.196136 86.268753,47.362652 85.778801,47.724640 
	C83.895706,47.034454 82.410805,46.148800 80.804321,44.964630 
	C80.098175,44.463417 79.513611,44.260723 78.959503,44.030708 
	C78.989967,44.003380 78.960938,44.079895 78.839989,43.834599 
	C78.388268,43.467812 78.057495,43.346317 77.691727,43.251595 
	C77.656723,43.278370 77.569160,43.288338 77.689270,42.889778 
	C77.872925,41.662136 77.936462,40.833050 78.374054,39.995613 
	C80.634941,38.703251 82.521790,37.419247 83.957115,36.442501 
	C83.595848,34.413109 82.957710,32.677284 83.043350,30.977932 
	C83.354286,24.807667 83.952560,18.652571 84.358551,12.486232 
	C84.888817,4.432767 80.214531,1.250180 71.526993,4.004886 
	C52.238621,4.002847 33.418213,4.063174 14.598985,3.941609 
	C11.276505,3.920146 9.778799,4.691893 9.940347,8.363389 
	C10.240204,15.178265 10.113243,22.011921 10.079963,28.924194 
	C9.995925,29.010633 9.829232,29.184845 9.829232,29.184845 
	C9.461137,27.182632 8.808763,25.184942 8.776813,23.177380 
	C8.669372,16.426378 8.782870,9.671862 8.921888,2.459715 
	C34.349865,2.010984 59.667789,2.021229 85.446930,2.056366 
z"/>
<path fill="#E95138" opacity="1.000000" stroke="none" 
	d="
M71.155663,52.939526 
	C68.276138,52.916492 65.396622,52.893459 62.228027,52.427025 
	C62.533802,47.774406 63.128651,43.565189 64.033516,39.164719 
	C66.049423,39.161858 67.755318,39.350254 69.828873,39.579254 
	C69.574196,36.846889 69.338722,34.320518 69.350006,31.969378 
	C70.048134,32.800735 70.499504,33.456863 70.950882,34.112991 
	C71.017273,34.562023 71.083664,35.011055 71.286934,35.968716 
	C71.502213,36.770741 71.682358,36.973988 71.964256,37.087090 
	C72.037941,37.851849 72.111618,38.616608 72.264969,40.185909 
	C72.162720,44.332211 71.980789,47.673973 71.798866,51.015732 
	C71.798866,51.015732 71.643082,51.219624 71.491211,51.528732 
	C71.278122,52.205070 71.216888,52.572296 71.155663,52.939526 
M70.957130,47.212677 
	C69.568657,45.620537 68.180191,44.028393 66.791718,42.436249 
	C66.121933,42.969486 65.452148,43.502720 64.782356,44.035954 
	C66.180244,46.231129 67.578125,48.426300 69.245987,51.045425 
	C69.964073,49.674473 70.411247,48.820728 70.957130,47.212677 
z"/>
<path fill="#FCF2EE" opacity="1.000000" stroke="none" 
	d="
M21.010143,11.518728 
	C21.010143,15.430299 21.010143,19.341869 21.010143,22.545174 
	C25.084196,27.602530 28.540585,22.580454 32.487732,23.200645 
	C32.835739,23.431675 32.704132,23.881826 32.389057,23.982635 
	C29.240349,27.347115 26.093128,28.776020 22.088375,25.809494 
	C21.988316,25.845959 22.196579,25.803156 22.024357,25.538086 
	C20.906645,24.818714 19.961157,24.364414 18.952118,23.835926 
	C18.888565,23.761740 18.694778,23.786585 18.575390,23.350243 
	C18.492226,19.002745 18.528450,15.091588 18.677544,11.224848 
	C18.790417,11.269262 18.975029,11.111880 19.315605,11.180008 
	C20.107502,11.338333 20.558823,11.428531 21.010143,11.518728 
z"/>
<path fill="#FCF2EE" opacity="1.000000" stroke="none" 
	d="
M79.123337,57.631496 
	C79.123337,57.631496 79.091835,57.300987 79.082542,57.135277 
	C87.377571,57.067055 88.769241,58.696777 88.041130,67.146370 
	C87.818474,69.730118 88.220093,72.402954 87.719131,74.911850 
	C87.484459,76.087189 85.784912,76.970024 84.373627,77.699738 
	C84.074593,77.053413 84.151199,76.692772 84.218407,76.307236 
	C84.209007,76.282349 84.188019,76.233444 84.439987,76.122528 
	C84.776886,75.665298 84.861816,75.318977 85.062927,74.845100 
	C85.179108,74.717537 85.178947,74.372444 85.447098,74.031647 
	C85.769150,70.449615 85.823044,67.208366 85.876938,63.967125 
	C85.932137,63.528381 85.987335,63.089638 85.969421,62.065430 
	C85.599892,61.327660 85.303467,61.175354 85.007050,61.023048 
	C85.007050,61.023052 85.000626,60.989899 84.834282,60.742683 
	C84.123276,60.300011 83.578621,60.104553 83.033958,59.909100 
	C83.033958,59.909100 83.009705,59.987831 82.861099,59.673985 
	C81.516113,58.783924 80.319725,58.207710 79.123337,57.631496 
z"/>
<path fill="#F24831" opacity="1.000000" stroke="none" 
	d="
M68.362167,90.024673 
	C66.000252,90.008713 63.863171,89.967209 61.167618,89.694611 
	C59.717327,88.275337 58.825500,87.087151 57.933678,85.898964 
	C57.933678,85.898964 57.994827,85.979744 58.387737,85.981911 
	C63.881844,88.253235 65.387772,81.875229 70.248970,80.695755 
	C67.524727,84.633957 68.405632,86.094765 71.986519,85.986458 
	C71.986519,85.986458 71.996643,85.996605 72.000763,86.346207 
	C72.022209,87.155090 72.039528,87.614372 72.056839,88.073647 
	C72.056839,88.073647 71.994217,88.012405 71.710846,88.040924 
	C70.996780,88.469101 70.566086,88.868759 70.135399,89.268417 
	C70.135399,89.268417 70.112938,89.148621 69.923508,89.177109 
	C69.401985,89.314407 69.161156,89.526703 69.011566,89.842491 
	C69.011566,89.842491 68.586990,89.999138 68.362167,90.024673 
z"/>
<path fill="#E14F39" opacity="1.000000" stroke="none" 
	d="
M21.443253,11.432358 
	C20.558823,11.428531 20.107502,11.338333 19.590464,10.854757 
	C21.314289,10.307581 23.103491,10.024873 24.893431,10.020093 
	C41.254726,9.976401 57.616150,9.981029 74.314484,9.979448 
	C75.100563,9.988260 75.549698,9.989176 75.999939,10.281193 
	C75.998405,10.766346 75.995750,10.960398 75.585266,11.197113 
	C73.831886,11.347499 72.486343,11.455221 71.140800,11.562944 
	C70.332138,11.490248 69.523483,11.417552 68.108208,11.355538 
	C67.501595,11.366220 67.081871,11.550023 67.081871,11.550022 
	C55.651299,11.481013 44.220726,11.412004 31.945015,11.318081 
	C29.782852,11.383857 28.465832,11.474545 27.148809,11.565234 
	C25.391327,11.492152 23.633844,11.419070 21.443253,11.432358 
z"/>
<path fill="#E4523B" opacity="1.000000" stroke="none" 
	d="
M85.526047,64.053406 
	C85.823044,67.208366 85.769150,70.449615 85.387238,73.638466 
	C84.860519,72.558891 84.661812,71.531700 84.288765,69.603279 
	C82.298882,72.554276 80.177757,74.530174 84.227806,76.332130 
	C84.151199,76.692772 84.074593,77.053413 83.978180,77.691132 
	C83.958374,77.968201 83.992416,77.979034 83.761314,78.072105 
	C83.252182,78.389732 83.127625,78.680130 83.156540,79.036362 
	C83.156540,79.036362 82.762085,79.164246 82.556862,79.194542 
	C81.718956,75.060982 76.945343,70.504562 83.623383,67.003571 
	C84.421692,66.585045 84.671242,65.119774 85.526047,64.053406 
z"/>
<path fill="#F5462F" opacity="1.000000" stroke="none" 
	d="
M59.288803,21.879513 
	C60.002739,22.204439 60.716675,22.529366 61.785904,23.234951 
	C62.202255,24.032797 62.263313,24.449984 61.909698,24.905621 
	C60.663197,24.963316 59.831367,24.982561 58.846603,24.699841 
	C58.325169,24.071461 57.987667,23.507872 57.583431,23.455061 
	C53.185596,22.880516 48.768970,22.442612 44.382652,21.796469 
	C43.847252,21.717602 43.459301,20.637800 43.462326,20.012184 
	C47.042831,19.884188 50.164032,19.765875 53.285229,19.647562 
	C53.285229,19.647562 53.124989,19.742002 53.278595,20.037491 
	C55.384399,20.848492 57.336601,21.364002 59.288803,21.879513 
z"/>
<path fill="#E14F39" opacity="1.000000" stroke="none" 
	d="
M78.000000,40.003967 
	C77.936462,40.833050 77.872925,41.662136 77.423347,42.670204 
	C76.774986,41.987717 76.512665,41.126244 76.250343,40.264771 
	C76.334633,39.452221 76.418915,38.639668 76.532860,37.042542 
	C76.457382,35.151115 76.352249,34.044266 76.247116,32.937420 
	C76.328751,31.885546 76.410378,30.833673 76.516296,28.975147 
	C76.444786,25.436346 76.348984,22.704197 76.253189,19.972048 
	C76.340332,19.229631 76.427475,18.487213 76.542862,17.000198 
	C76.499748,14.587789 76.428383,12.919977 76.727905,11.300982 
	C77.402855,12.235173 77.706917,13.120546 78.008705,14.382287 
	C78.011734,15.511370 78.017036,16.264086 78.015747,17.483410 
	C78.007996,24.297617 78.006836,30.645214 78.002991,37.369152 
	C78.000191,38.498318 78.000099,39.251141 78.000000,40.003967 
z"/>
<path fill="#FCF2EE" opacity="1.000000" stroke="none" 
	d="
M62.324371,24.867172 
	C62.263313,24.449984 62.202255,24.032797 62.075886,23.306190 
	C66.868950,23.099361 70.656837,27.436401 70.975937,33.701797 
	C70.499504,33.456863 70.048134,32.800735 69.295822,31.635700 
	C66.771385,29.040253 64.547874,26.953712 62.324371,24.867172 
z"/>
<path fill="#FCF2EE" opacity="1.000000" stroke="none" 
	d="
M76.137451,40.590263 
	C76.512665,41.126244 76.774986,41.987717 77.303238,43.068764 
	C77.569160,43.288338 77.656723,43.278370 77.797318,43.506226 
	C78.278915,43.849350 78.619926,43.964622 78.960938,44.079895 
	C78.960938,44.079895 78.989967,44.003380 79.122269,44.287186 
	C79.811676,44.801712 80.368797,45.032429 80.925911,45.263149 
	C82.410805,46.148800 83.895706,47.034454 85.702034,47.999283 
	C85.700233,48.606323 85.399368,49.576687 85.050339,49.594334 
	C81.092163,49.794403 76.083359,44.905434 76.137451,40.590263 
z"/>
<path fill="#FCF2EE" opacity="1.000000" stroke="none" 
	d="
M86.754929,46.938911 
	C86.376457,43.347282 86.300674,39.664940 86.339928,35.542450 
	C86.152374,39.043430 90.218010,42.760433 86.754929,46.938911 
z"/>
<path fill="#FCF2EE" opacity="1.000000" stroke="none" 
	d="
M72.159477,50.850697 
	C71.980789,47.673973 72.162720,44.332211 72.406906,40.544117 
	C74.424294,43.617752 75.146210,47.143654 72.159477,50.850697 
z"/>
<path fill="#FCF2EE" opacity="1.000000" stroke="none" 
	d="
M76.357018,11.252166 
	C76.428383,12.919977 76.499748,14.587789 76.408920,16.644749 
	C74.707069,15.325317 73.167404,13.616735 71.384270,11.735548 
	C72.486343,11.455221 73.831886,11.347499 75.660477,11.279840 
	C76.143532,11.319903 76.357018,11.252166 76.357018,11.252166 
z"/>
<path fill="#FCF2EE" opacity="1.000000" stroke="none" 
	d="
M75.953781,20.150448 
	C76.348984,22.704197 76.444786,25.436346 76.380798,28.598148 
	C76.032135,26.128149 75.843262,23.228500 75.953781,20.150448 
z"/>
<path fill="#FCF2EE" opacity="1.000000" stroke="none" 
	d="
M39.983063,19.569191 
	C40.887508,18.748159 41.805729,17.218855 42.693878,17.236126 
	C45.601105,17.292654 48.497387,17.911966 51.255718,18.605492 
	C48.402004,19.014593 45.690445,19.133102 42.699638,19.216991 
	C41.922260,19.393423 41.424137,19.604477 40.689434,19.757164 
	C40.452854,19.698797 39.983063,19.569191 39.983063,19.569191 
z"/>
<path fill="#FCF2EE" opacity="1.000000" stroke="none" 
	d="
M26.454197,20.350687 
	C25.515310,19.903542 24.828545,19.189442 24.141777,18.475344 
	C24.705736,18.079184 25.269697,17.683025 25.833658,17.286867 
	C26.124544,18.219156 26.415430,19.151445 26.454197,20.350687 
z"/>
<path fill="#FCF2EE" opacity="1.000000" stroke="none" 
	d="
M75.948761,32.972984 
	C76.352249,34.044266 76.457382,35.151115 76.401230,36.650803 
	C74.494896,35.924862 72.269272,34.876293 75.948761,32.972984 
z"/>
<path fill="#E2573F" opacity="1.000000" stroke="none" 
	d="
M42.978889,19.251612 
	C45.690445,19.133102 48.402004,19.014593 51.565559,18.854216 
	C52.333477,18.954895 52.649391,19.097441 53.125267,19.443775 
	C50.164032,19.765875 47.042831,19.884188 43.451370,19.819653 
	C42.981106,19.636806 42.978889,19.251612 42.978889,19.251612 
z"/>
<path fill="#E4523B" opacity="1.000000" stroke="none" 
	d="
M77.539246,84.164215 
	C76.640076,81.786606 77.743713,80.821983 80.524368,80.996933 
	C79.892677,82.022057 78.867332,83.045769 77.539246,84.164215 
z"/>
<path fill="#E2573F" opacity="1.000000" stroke="none" 
	d="
M59.050594,21.597830 
	C57.336601,21.364002 55.384399,20.848492 53.331192,19.960794 
	C55.090916,20.164454 56.951653,20.740299 59.050594,21.597830 
z"/>
<path fill="#E2573F" opacity="1.000000" stroke="none" 
	d="
M39.694916,19.717710 
	C39.983063,19.569191 40.452854,19.698797 40.713642,20.050819 
	C40.980850,20.599089 40.987267,20.795334 40.675346,21.129532 
	C39.247234,21.525597 38.137463,21.783707 36.796982,22.050713 
	C36.566269,22.059610 36.108009,22.116375 36.039074,22.042105 
	C35.970139,21.967834 35.832245,21.819317 35.890572,21.620457 
	C35.948895,21.421598 36.055573,21.021090 36.055573,21.021090 
	C36.230412,20.996183 36.405247,20.971279 37.037052,20.814911 
	C37.809681,20.576609 38.021458,20.365522 38.129356,20.050190 
	C38.555161,19.988871 38.980968,19.927549 39.694916,19.717710 
z"/>
<path fill="#FCF2EE" opacity="1.000000" stroke="none" 
	d="
M27.413483,11.718534 
	C28.465832,11.474545 29.782852,11.383857 31.478634,11.420166 
	C30.464315,11.655387 29.071236,11.763610 27.413483,11.718534 
z"/>
<path fill="#E2573F" opacity="1.000000" stroke="none" 
	d="
M32.704132,23.881826 
	C32.704132,23.881826 32.835739,23.431675 32.866768,23.199171 
	C32.897793,22.966667 32.973007,22.976961 33.225540,22.888885 
	C33.706322,22.553646 33.934566,22.306482 34.162811,22.059319 
	C34.162811,22.059317 34.641388,21.984077 35.034103,21.879641 
	C35.426819,21.775204 35.832245,21.819317 35.832245,21.819317 
	C35.832245,21.819317 35.970139,21.967834 35.928131,22.385696 
	C34.825459,23.162981 33.764797,23.522404 32.704132,23.881826 
z"/>
<path fill="#FCF2EE" opacity="1.000000" stroke="none" 
	d="
M74.956100,54.401703 
	C74.151085,54.295135 73.279366,53.875214 72.264511,53.198143 
	C73.044052,53.323448 73.966721,53.705898 74.956100,54.401703 
z"/>
<path fill="#EB4E34" opacity="1.000000" stroke="none" 
	d="
M72.351112,88.030472 
	C72.039528,87.614372 72.022209,87.155090 72.005669,86.351196 
	C72.536049,86.056587 73.065659,86.106590 73.972153,86.299118 
	C73.781151,86.956863 73.213264,87.472084 72.351112,88.030472 
z"/>
<path fill="#EB4E34" opacity="1.000000" stroke="none" 
	d="
M74.608963,86.386826 
	C74.695717,85.989571 75.077301,85.542099 75.794067,85.096794 
	C75.720764,85.511513 75.312279,85.924057 74.608963,86.386826 
z"/>
<path fill="#EB4E34" opacity="1.000000" stroke="none" 
	d="
M70.436249,89.234360 
	C70.566086,88.868759 70.996780,88.469101 71.747940,88.063477 
	C71.624641,88.438438 71.180870,88.819374 70.436249,89.234360 
z"/>
<path fill="#EB4E34" opacity="1.000000" stroke="none" 
	d="
M69.276184,89.891602 
	C69.161156,89.526703 69.401985,89.314407 69.981888,89.194595 
	C70.000069,89.435974 69.770439,89.688347 69.276184,89.891602 
z"/>
<path fill="#FCF2EE" opacity="1.000000" stroke="none" 
	d="
M71.949158,36.889290 
	C71.682358,36.973988 71.502213,36.770741 71.450752,36.269447 
	C71.710609,36.212997 71.862732,36.422981 71.949158,36.889290 
z"/>
<path fill="#FCF2EE" opacity="1.000000" stroke="none" 
	d="
M33.911690,22.113342 
	C33.934566,22.306482 33.706322,22.553646 33.224461,22.850962 
	C33.200752,22.656530 33.430660,22.411949 33.911690,22.113342 
z"/>
<path fill="#E4523B" opacity="1.000000" stroke="none" 
	d="
M76.347519,85.099876 
	C76.286331,84.861931 76.498138,84.566666 76.990173,84.228485 
	C77.053772,84.471222 76.837143,84.756889 76.347519,85.099876 
z"/>
<path fill="#FCF2EE" opacity="1.000000" stroke="none" 
	d="
M35.890572,21.620457 
	C35.832245,21.819317 35.426819,21.775204 35.227257,21.733471 
	C35.156281,21.420271 35.358894,21.226030 35.845558,21.065052 
	C36.055573,21.021090 35.948895,21.421598 35.890572,21.620457 
z"/>
<path fill="#FCF2EE" opacity="1.000000" stroke="none" 
	d="
M83.356949,78.910461 
	C83.127625,78.680130 83.252182,78.389732 83.751198,78.058975 
	C83.940712,78.283302 83.802437,78.560562 83.356949,78.910461 
z"/>
<path fill="#FCF2EE" opacity="1.000000" stroke="none" 
	d="
M67.170578,11.641159 
	C67.081871,11.550023 67.501595,11.366220 67.711647,11.457586 
	C67.921700,11.548953 67.623123,11.769194 67.623123,11.769194 
	C67.623123,11.769194 67.259285,11.732296 67.170578,11.641159 
z"/>
<path fill="#FCF2EE" opacity="1.000000" stroke="none" 
	d="
M37.909904,20.078421 
	C38.021458,20.365522 37.809681,20.576609 37.263420,20.677326 
	C37.177574,20.396296 37.396786,20.208111 37.909904,20.078421 
z"/>
<path fill="#FCF2EE" opacity="1.000000" stroke="none" 
	d="
M71.377510,52.954826 
	C71.216888,52.572296 71.278122,52.205070 71.547302,51.644119 
	C71.814362,51.689835 71.873459,51.929268 71.985611,52.534771 
	C72.038673,52.900837 71.599358,52.970123 71.377510,52.954826 
z"/>
<path fill="#FCF2EE" opacity="1.000000" stroke="none" 
	d="
M76.841972,55.570770 
	C76.627762,55.834747 76.329231,55.742313 75.959549,55.276115 
	C76.170815,55.049313 76.460564,55.153316 76.841972,55.570770 
z"/>
<path fill="#FCF2EE" opacity="1.000000" stroke="none" 
	d="
M78.861023,56.712608 
	C78.670494,56.827045 78.326996,56.713097 77.840622,56.358971 
	C78.034508,56.240601 78.371277,56.362411 78.861023,56.712608 
z"/>
<path fill="#E95138" opacity="1.000000" stroke="none" 
	d="
M52.947937,59.694855 
	C52.261963,61.406544 57.189507,63.400566 52.329842,64.547829 
	C49.322083,63.211288 46.669617,62.247135 42.803574,60.841846 
	C43.710583,64.347855 44.140934,66.011368 44.566803,67.657539 
	C46.813782,67.935204 48.748569,68.174286 50.683357,68.413376 
	C36.529137,71.532669 18.567610,57.463345 23.349468,37.708347 
	C23.785187,39.051762 23.890705,40.529694 24.004990,42.375069 
	C24.470486,45.653393 26.039963,45.492779 27.476625,43.673397 
	C28.625069,42.219013 29.049780,40.215942 30.039310,38.606140 
	C30.847242,37.291771 32.015205,36.198708 32.959206,35.388977 
	C28.880678,45.344273 31.385836,54.645607 39.900959,58.239597 
	C43.766132,59.870975 48.569927,59.278519 52.947937,59.694855 
z"/>
<path fill="#F44629" opacity="1.000000" stroke="none" 
	d="
M23.996222,42.007629 
	C23.890705,40.529694 23.785187,39.051762 23.433624,37.303154 
	C20.992168,35.748825 18.796761,34.465172 16.304657,32.634102 
	C16.005493,31.390587 16.003025,30.694487 16.106724,29.740444 
	C16.474596,28.991152 16.736305,28.499805 17.247204,27.843502 
	C17.675440,27.121973 17.854486,26.565399 18.275448,26.006424 
	C18.517363,26.004023 19.001112,25.994074 19.400951,25.991795 
	C20.599386,25.927395 21.397982,25.865274 22.196579,25.803156 
	C22.196579,25.803156 21.988316,25.845959 21.986805,26.175007 
	C19.078453,30.916172 19.314222,31.914909 23.833076,33.302048 
	C23.614206,31.679337 23.410707,30.170589 23.087635,27.775305 
	C30.033190,30.471815 24.030153,35.764545 26.283403,38.896145 
	C26.515039,39.218079 24.805185,40.936958 23.996222,42.007629 
z"/>
<path fill="#F24831" opacity="1.000000" stroke="none" 
	d="
M50.771118,68.438522 
	C48.748569,68.174286 46.813782,67.935204 44.566803,67.657539 
	C44.140934,66.011368 43.710583,64.347855 42.803574,60.841846 
	C46.669617,62.247135 49.322083,63.211288 51.992672,64.582306 
	C52.010796,64.989166 51.998871,65.001106 51.692230,65.005379 
	C50.865730,65.110313 50.345871,65.210968 49.826015,65.311630 
	C49.834469,65.488892 49.842922,65.666153 49.851376,65.843414 
	C50.563179,65.891197 51.274982,65.938980 51.986786,65.986763 
	C51.986786,65.986763 51.998875,65.999031 51.876640,66.296516 
	C51.499493,67.174751 51.244572,67.755501 50.989655,68.336250 
	C50.989655,68.336250 50.858879,68.463669 50.771118,68.438522 
z"/>
<path fill="#E55437" opacity="1.000000" stroke="none" 
	d="
M71.987823,85.569977 
	C68.405632,86.094765 67.524727,84.633957 70.248970,80.695755 
	C65.387772,81.875229 63.881844,88.253235 58.343376,85.957458 
	C61.985065,83.269875 66.064018,80.608917 70.474617,77.861023 
	C71.200546,80.233887 71.594833,82.693687 71.987823,85.569977 
z"/>
<path fill="#E55437" opacity="1.000000" stroke="none" 
	d="
M57.603127,85.930862 
	C58.825500,87.087151 59.717327,88.275337 60.799534,89.734810 
	C57.554050,93.477409 57.174248,87.366798 54.267761,87.944931 
	C55.015358,87.258392 56.143970,86.610580 57.603127,85.930862 
z"/>
<path fill="#E95138" opacity="1.000000" stroke="none" 
	d="
M70.929306,63.509350 
	C72.561264,62.652287 74.348167,62.076923 76.135071,61.501560 
	C76.357819,61.660851 76.580566,61.820141 76.803314,61.979427 
	C75.986664,62.815933 75.170013,63.652435 74.171783,64.759193 
	C73.021553,64.616653 72.052902,64.203850 70.929306,63.509350 
z"/>
<path fill="#E54C34" opacity="1.000000" stroke="none" 
	d="
M16.000559,29.998388 
	C16.003025,30.694487 16.005493,31.390587 16.006500,32.434578 
	C14.074473,31.763741 12.143905,30.745010 10.021284,29.455563 
	C9.829232,29.184845 9.995925,29.010633 10.445042,28.983067 
	C12.596292,29.303127 14.298426,29.650759 16.000559,29.998388 
z"/>
<path fill="#E95138" opacity="1.000000" stroke="none" 
	d="
M51.382381,68.350098 
	C51.244572,67.755501 51.499493,67.174751 51.881905,66.303329 
	C53.744576,66.012009 55.479759,66.011353 57.649212,66.039352 
	C55.980694,66.833321 53.877903,67.598633 51.382381,68.350098 
z"/>
<path fill="#E95138" opacity="1.000000" stroke="none" 
	d="
M63.327141,62.909401 
	C64.211494,62.175785 65.408310,61.350243 66.788467,60.806099 
	C65.861084,61.664154 64.750343,62.240814 63.327141,62.909401 
z"/>
<path fill="#E95138" opacity="1.000000" stroke="none" 
	d="
M60.379093,65.073448 
	C60.803558,64.406975 61.541862,63.706135 62.639706,63.009571 
	C62.230476,63.688923 61.461700,64.363998 60.379093,65.073448 
z"/>
<path fill="#E95138" opacity="1.000000" stroke="none" 
	d="
M58.340767,66.097275 
	C58.513294,65.755226 58.990799,65.407799 59.785110,65.068573 
	C59.616528,65.415146 59.131130,65.753525 58.340767,66.097275 
z"/>
<path fill="#F04933" opacity="1.000000" stroke="none" 
	d="
M76.003685,75.016945 
	C75.546669,75.009827 75.089653,75.002716 74.289795,74.983772 
	C74.398888,74.622246 74.850830,74.272552 75.611984,73.863556 
	C75.942070,74.003845 75.962921,74.203423 75.992310,74.701881 
	C76.000854,75.000771 76.003685,75.016945 76.003685,75.016945 
z"/>
<path fill="#E95138" opacity="1.000000" stroke="none" 
	d="
M68.987396,62.419357 
	C69.436707,62.321526 70.042000,62.489929 70.755524,62.972889 
	C70.290291,63.086830 69.716827,62.886215 68.987396,62.419357 
z"/>
<path fill="#E55437" opacity="1.000000" stroke="none" 
	d="
M53.645325,87.880577 
	C53.482529,88.220406 53.014755,88.577934 52.231102,88.932693 
	C52.390259,88.586037 52.865299,88.242157 53.645325,87.880577 
z"/>
<path fill="#E55437" opacity="1.000000" stroke="none" 
	d="
M51.637329,88.918297 
	C51.412560,89.237709 50.859451,89.574402 49.957489,89.885635 
	C50.175426,89.551971 50.742210,89.243774 51.637329,88.918297 
z"/>
<path fill="#E95138" opacity="1.000000" stroke="none" 
	d="
M67.087646,61.315861 
	C67.507469,61.246567 68.088303,61.433479 68.791183,61.915558 
	C68.358376,61.997833 67.803513,61.784950 67.087646,61.315861 
z"/>
<path fill="#F04933" opacity="1.000000" stroke="none" 
	d="
M72.718002,76.052498 
	C72.771736,76.246269 72.577919,76.509758 72.148758,76.860207 
	C72.099091,76.672180 72.284775,76.397202 72.718002,76.052498 
z"/>
<path fill="#F04933" opacity="1.000000" stroke="none" 
	d="
M71.676987,76.966377 
	C71.736763,77.192642 71.526382,77.473419 71.052200,77.819275 
	C70.994545,77.596542 71.200691,77.308716 71.676987,76.966377 
z"/>
<path fill="#FC4228" opacity="1.000000" stroke="none" 
	d="
M10.024192,66.379494 
	C10.013222,60.518322 10.013222,55.084843 10.013222,49.651360 
	C10.510182,49.662987 11.007142,49.674610 11.504103,49.686237 
	C11.504103,55.878746 11.504103,62.071251 11.504103,69.239166 
	C10.714272,67.931519 10.374717,67.369354 10.024192,66.379494 
z"/>
<path fill="#FCF5F2" opacity="1.000000" stroke="none" 
	d="
M53.047974,59.681290 
	C48.569927,59.278519 43.766132,59.870975 39.900959,58.239597 
	C31.385836,54.645607 28.880678,45.344273 33.199062,35.229317 
	C34.048424,33.901157 34.593597,33.114113 35.394585,32.202698 
	C35.835537,31.757254 36.020668,31.436171 36.150475,31.105623 
	C36.095154,31.096159 36.118027,31.206055 36.393444,31.123163 
	C36.891483,30.737478 37.114109,30.434685 37.594147,30.083992 
	C38.241055,29.714582 38.630547,29.393068 39.368225,29.032619 
	C40.984425,28.406713 42.252434,27.819746 43.643875,27.283245 
	C43.767307,27.333710 43.973324,27.164345 44.411381,27.199181 
	C46.884743,27.229235 48.920048,27.224455 51.060547,27.297462 
	C51.165741,27.375252 51.401203,27.261110 51.645481,27.506790 
	C52.557556,27.899866 53.225357,28.047260 54.122490,28.423384 
	C56.437645,30.141418 58.523464,31.630728 60.715141,33.386753 
	C61.105343,33.883545 61.389698,34.113621 61.605015,34.376068 
	C61.535980,34.408436 61.544205,34.560707 61.615143,34.867256 
	C62.383400,36.516125 63.080719,37.858448 63.752930,39.235542 
	C63.727818,39.270309 63.723495,39.355972 63.723495,39.355972 
	C63.128651,43.565189 62.533802,47.774406 61.860188,52.348232 
	C61.781418,52.712841 61.802242,52.752502 61.569935,52.861069 
	C61.203011,53.296371 61.068394,53.623108 60.933777,53.949844 
	C60.933777,53.949844 60.994694,54.002449 60.729462,54.054131 
	C60.308334,54.398651 60.152439,54.691490 59.996544,54.984329 
	C59.996548,54.984329 59.997471,54.997700 59.702126,55.108799 
	C58.544498,56.096077 57.682213,56.972256 56.819931,57.848434 
	C56.819931,57.848434 56.911781,57.897655 56.632511,57.897369 
	C56.125866,58.161800 55.898487,58.426517 55.671112,58.691238 
	C55.671116,58.691238 55.818771,58.737644 55.447449,58.702869 
	C54.495949,59.026207 53.915771,59.384315 53.335594,59.742424 
	C53.335594,59.742424 53.148014,59.667728 53.047974,59.681290 
M48.773224,40.383442 
	C49.348103,38.986080 49.922985,37.588718 50.499840,36.186558 
	C45.393120,34.737541 41.854858,36.069206 39.908154,40.141205 
	C38.118427,43.884846 38.792488,47.380867 41.901821,50.014294 
	C45.146618,52.762455 48.992077,53.091377 52.392815,50.423344 
	C55.591606,47.913750 57.049919,44.573380 55.648224,41.987793 
	C52.593128,41.584423 50.763420,41.342838 48.773224,40.383442 
z"/>
<path fill="#E4523B" opacity="1.000000" stroke="none" 
	d="
M76.009010,75.002419 
	C76.845200,74.551552 77.673225,74.099037 78.501251,73.646515 
	C78.822769,73.891922 79.144287,74.137321 79.465805,74.382729 
	C78.207687,76.269653 76.949577,78.156586 75.691460,80.043510 
	C75.178955,79.801811 74.666451,79.560120 74.153946,79.318420 
	C74.670860,78.088318 75.187782,76.858208 75.854187,75.322525 
	C76.003685,75.016945 76.000854,75.000771 76.009010,75.002419 
z"/>
<path fill="#E95138" opacity="1.000000" stroke="none" 
	d="
M62.999847,57.999847 
	C62.457550,58.608662 61.915257,59.217472 61.372955,59.826286 
	C61.076859,59.545460 60.780762,59.264629 60.484669,58.983803 
	C61.095058,58.659580 61.705444,58.335354 62.657913,58.005562 
	C63.000000,58.000000 62.999847,57.999847 62.999847,57.999847 
z"/>
<path fill="#E4523B" opacity="1.000000" stroke="none" 
	d="
M79.131744,58.025593 
	C80.319725,58.207710 81.516113,58.783924 82.894028,59.649239 
	C81.763756,59.432117 80.451958,58.925903 79.131744,58.025593 
z"/>
<path fill="#E95138" opacity="1.000000" stroke="none" 
	d="
M57.175014,57.869698 
	C57.682213,56.972256 58.544498,56.096077 59.695423,55.108788 
	C59.166077,55.962105 58.348087,56.926533 57.175014,57.869698 
z"/>
<path fill="#E95138" opacity="1.000000" stroke="none" 
	d="
M63.000076,58.000076 
	C63.302067,57.491405 63.603985,56.982658 63.905899,56.473915 
	C64.114632,56.654549 64.323357,56.835182 64.532089,57.015816 
	C64.210152,57.319599 63.888214,57.623386 63.283062,57.963509 
	C62.999847,57.999847 63.000000,58.000000 63.000076,58.000076 
z"/>
<path fill="#E95138" opacity="1.000000" stroke="none" 
	d="
M51.988747,65.742821 
	C51.274982,65.938980 50.563179,65.891197 49.851376,65.843414 
	C49.842922,65.666153 49.834469,65.488892 49.826015,65.311630 
	C50.345871,65.210968 50.865730,65.110313 51.687302,65.010315 
	C51.989021,65.010971 51.990711,65.498878 51.988747,65.742821 
z"/>
<path fill="#E95138" opacity="1.000000" stroke="none" 
	d="
M53.725613,59.797142 
	C53.915771,59.384315 54.495949,59.026207 55.422291,58.629684 
	C55.217514,59.011467 54.666569,59.431660 53.725613,59.797142 
z"/>
<path fill="#E95138" opacity="1.000000" stroke="none" 
	d="
M70.997253,59.997887 
	C71.343636,59.750660 71.690010,59.503429 72.036392,59.256203 
	C72.122940,59.378262 72.209496,59.500320 72.296043,59.622375 
	C72.023438,59.739269 71.750839,59.856163 71.239120,59.986530 
	C71.000000,60.000000 70.997253,59.997887 70.997253,59.997887 
z"/>
<path fill="#E4523B" opacity="1.000000" stroke="none" 
	d="
M83.172646,60.176613 
	C83.578621,60.104553 84.123276,60.300011 84.818481,60.748634 
	C84.416458,60.815910 83.863892,60.630016 83.172646,60.176613 
z"/>
<path fill="#E95138" opacity="1.000000" stroke="none" 
	d="
M61.179039,53.838875 
	C61.068394,53.623108 61.203011,53.296371 61.590446,52.869717 
	C61.703606,53.089169 61.563950,53.408539 61.179039,53.838875 
z"/>
<path fill="#E95138" opacity="1.000000" stroke="none" 
	d="
M60.223648,54.881302 
	C60.152439,54.691490 60.308334,54.398651 60.705776,54.021877 
	C60.899300,54.287506 60.733776,54.567616 60.223648,54.881302 
z"/>
<path fill="#E95138" opacity="1.000000" stroke="none" 
	d="
M55.958778,58.688568 
	C55.898487,58.426517 56.125866,58.161800 56.623192,57.846107 
	C56.677582,58.092056 56.462013,58.388977 55.958778,58.688568 
z"/>
<path fill="#E4523B" opacity="1.000000" stroke="none" 
	d="
M85.086884,61.234299 
	C85.303467,61.175354 85.599892,61.327660 85.876236,61.744953 
	C85.562347,61.899971 85.332535,61.711838 85.086884,61.234299 
z"/>
<path fill="#E95138" opacity="1.000000" stroke="none" 
	d="
M71.001076,60.001385 
	C70.909386,60.037537 70.816628,60.072304 70.860558,60.052483 
	C70.997253,59.997887 71.000000,60.000000 71.001076,60.001385 
z"/>
<path fill="#F74528" opacity="1.000000" stroke="none" 
	d="
M16.106724,29.740444 
	C14.298426,29.650759 12.596292,29.303127 10.529079,28.896627 
	C10.113243,22.011921 10.240204,15.178265 9.940347,8.363389 
	C9.778799,4.691893 11.276505,3.920146 14.598985,3.941609 
	C33.418213,4.063174 52.238621,4.002847 71.480858,4.329324 
	C71.422905,5.461685 70.942719,6.269171 70.563965,6.906099 
	C71.791222,8.008202 72.884384,8.989877 73.977539,9.971551 
	C57.616150,9.981029 41.254726,9.976401 24.893431,10.020093 
	C23.103491,10.024873 21.314289,10.307581 19.249887,10.786630 
	C18.975029,11.111880 18.790417,11.269262 18.336208,11.270132 
	C17.555058,11.832468 17.228115,12.393932 16.520767,12.956533 
	C12.950572,12.081269 13.151727,10.406677 15.623247,9.126002 
	C17.293056,8.260753 19.450863,8.064719 21.394844,8.046571 
	C31.868097,7.948795 42.342747,8.000328 52.816914,8.000341 
	C57.130703,8.000346 61.444492,8.000342 65.758278,8.000342 
	C65.757500,7.582930 65.756721,7.165518 65.755943,6.748106 
	C47.991669,6.748106 30.227392,6.748106 12.751806,6.748106 
	C12.751806,13.691989 12.751806,20.612801 12.751806,28.002701 
	C14.701760,27.082018 15.843666,26.542860 16.988327,26.337748 
	C16.993395,27.117348 16.995705,27.562902 16.998016,28.008459 
	C16.736305,28.499805 16.474596,28.991152 16.106724,29.740444 
z"/>
<path fill="#E94B2C" opacity="1.000000" stroke="none" 
	d="
M74.314484,9.979448 
	C72.884384,8.989877 71.791222,8.008202 70.563965,6.906099 
	C70.942719,6.269171 71.422905,5.461685 71.949226,4.329762 
	C80.214531,1.250180 84.888817,4.432767 84.358551,12.486232 
	C83.952560,18.652571 83.354286,24.807667 83.043350,30.977932 
	C82.957710,32.677284 83.595848,34.413109 83.957115,36.442501 
	C82.521790,37.419247 80.634941,38.703251 78.374054,39.995613 
	C78.000099,39.251141 78.000191,38.498318 78.348595,37.319336 
	C79.131538,33.594177 79.566177,30.295181 80.250130,26.813637 
	C80.333931,25.755737 80.168427,24.880384 80.002319,23.580753 
	C79.341919,21.109919 78.682137,19.063358 78.022354,17.016800 
	C78.017036,16.264086 78.011734,15.511370 78.360100,14.315338 
	C78.977806,11.852759 79.241844,9.833496 79.505882,7.814234 
	C78.336861,8.539521 77.167847,9.264808 75.998825,9.990092 
	C75.549698,9.989176 75.100563,9.988260 74.314484,9.979448 
z"/>
<path fill="#E14F39" opacity="1.000000" stroke="none" 
	d="
M80.804321,44.964630 
	C80.368797,45.032429 79.811676,44.801712 79.091805,44.314514 
	C79.513611,44.260723 80.098175,44.463417 80.804321,44.964630 
z"/>
<path fill="#E14F39" opacity="1.000000" stroke="none" 
	d="
M78.839989,43.834599 
	C78.619926,43.964622 78.278915,43.849350 77.832314,43.479450 
	C78.057495,43.346317 78.388268,43.467812 78.839989,43.834599 
z"/>
<path fill="#F04B34" opacity="1.000000" stroke="none" 
	d="
M60.609287,33.120037 
	C58.523464,31.630728 56.437645,30.141418 54.149220,28.142290 
	C53.950245,27.444235 53.953876,27.255999 54.171825,26.794834 
	C55.923943,26.015203 57.461742,25.508503 58.999542,25.001806 
	C59.831367,24.982561 60.663197,24.963316 61.909698,24.905621 
	C64.547874,26.953712 66.771385,29.040253 69.049072,31.460470 
	C69.338722,34.320518 69.574196,36.846889 69.828873,39.579254 
	C67.755318,39.350254 66.049423,39.161858 64.033516,39.164719 
	C63.723495,39.355972 63.727818,39.270309 63.829391,38.843651 
	C64.282043,36.603371 64.633110,34.789753 65.052124,32.625141 
	C63.523636,33.468517 62.533920,34.014610 61.544205,34.560707 
	C61.544205,34.560707 61.535980,34.408436 61.584373,34.064987 
	C61.291607,33.521038 60.950447,33.320538 60.609287,33.120037 
z"/>
<path fill="#F4452F" opacity="1.000000" stroke="none" 
	d="
M70.907776,47.589828 
	C70.411247,48.820728 69.964073,49.674473 69.245987,51.045425 
	C67.578125,48.426300 66.180244,46.231129 64.782356,44.035954 
	C65.452148,43.502720 66.121933,42.969486 66.791718,42.436249 
	C68.180191,44.028393 69.568657,45.620537 70.907776,47.589828 
z"/>
<path fill="#E94B2C" opacity="1.000000" stroke="none" 
	d="
M16.985571,26.003704 
	C15.843666,26.542860 14.701760,27.082018 12.751806,28.002701 
	C12.751806,20.612801 12.751806,13.691989 12.751806,6.748106 
	C30.227392,6.748106 47.991669,6.748106 65.755943,6.748106 
	C65.756721,7.165518 65.757500,7.582930 65.758278,8.000342 
	C61.444492,8.000342 57.130703,8.000346 52.816914,8.000341 
	C42.342747,8.000328 31.868097,7.948795 21.394844,8.046571 
	C19.450863,8.064719 17.293056,8.260753 15.623247,9.126002 
	C13.151727,10.406677 12.950572,12.081269 16.549227,13.301071 
	C16.958599,14.104257 16.959110,14.564040 16.575090,15.028354 
	C15.477301,16.060234 14.764042,17.087584 14.050783,18.114937 
	C15.009579,18.733091 15.968374,19.351246 16.946264,20.369936 
	C17.541832,21.775843 18.118305,22.781214 18.694778,23.786585 
	C18.694778,23.786585 18.888565,23.761740 18.944622,24.183397 
	C19.000824,25.068062 19.000969,25.531067 19.001112,25.994074 
	C19.001112,25.994074 18.517363,26.004023 18.013264,26.003036 
	C17.334633,26.002600 17.160103,26.003151 16.985571,26.003704 
z"/>
<path fill="#ED4D32" opacity="1.000000" stroke="none" 
	d="
M39.020035,29.071556 
	C38.630547,29.393068 38.241055,29.714582 37.302261,30.142818 
	C36.541313,30.568378 36.329670,30.887217 36.118027,31.206055 
	C36.118027,31.206055 36.095154,31.096159 35.867226,31.197388 
	C35.472458,31.641432 35.305611,31.984247 35.138767,32.327065 
	C34.593597,33.114113 34.048424,33.901157 33.263397,34.847862 
	C32.015205,36.198708 30.847242,37.291771 30.039310,38.606140 
	C29.049780,40.215942 28.625069,42.219013 27.476625,43.673397 
	C26.039963,45.492779 24.470486,45.653393 24.004990,42.375069 
	C24.805185,40.936958 26.515039,39.218079 26.283403,38.896145 
	C24.030153,35.764545 30.033190,30.471815 23.087635,27.775305 
	C23.410707,30.170589 23.614206,31.679337 23.833076,33.302048 
	C19.314222,31.914909 19.078453,30.916172 22.086864,26.138542 
	C26.093128,28.776020 29.240349,27.347115 32.389057,23.982635 
	C33.764797,23.522404 34.825459,23.162981 35.997066,22.459965 
	C36.108009,22.116375 36.566269,22.059610 36.848309,22.401104 
	C37.753651,24.493359 38.376953,26.244118 39.000156,28.264137 
	C39.006714,28.712784 39.013374,28.892170 39.020035,29.071556 
M36.590061,27.517326 
	C36.590061,27.517326 36.477562,27.584633 36.590061,27.517326 
z"/>
<path fill="#E14F39" opacity="1.000000" stroke="none" 
	d="
M18.575390,23.350243 
	C18.118305,22.781214 17.541832,21.775843 16.964600,19.958668 
	C16.962433,17.772516 16.961027,16.398170 16.959621,15.023824 
	C16.959110,14.564040 16.958599,14.104257 16.929630,13.299935 
	C17.228115,12.393932 17.555058,11.832468 18.223337,11.225718 
	C18.528450,15.091588 18.492226,19.002745 18.575390,23.350243 
z"/>
<path fill="#E14F39" opacity="1.000000" stroke="none" 
	d="
M19.400951,25.991795 
	C19.000969,25.531067 19.000824,25.068062 19.008175,24.257584 
	C19.961157,24.364414 20.906645,24.818714 22.024357,25.538086 
	C21.397982,25.865274 20.599386,25.927395 19.400951,25.991795 
z"/>
<path fill="#F24831" opacity="1.000000" stroke="none" 
	d="
M84.218407,76.307236 
	C80.177757,74.530174 82.298882,72.554276 84.288765,69.603279 
	C84.661812,71.531700 84.860519,72.558891 85.119080,73.979263 
	C85.178947,74.372444 85.179108,74.717537 84.842690,74.989624 
	C84.400185,75.585625 84.294098,75.909538 84.188019,76.233444 
	C84.188019,76.233444 84.209007,76.282349 84.218407,76.307236 
z"/>
<path fill="#E4523B" opacity="1.000000" stroke="none" 
	d="
M84.439987,76.122528 
	C84.294098,75.909538 84.400185,75.585625 84.726501,75.117188 
	C84.861816,75.318977 84.776886,75.665298 84.439987,76.122528 
z"/>
<path fill="#E54C34" opacity="1.000000" stroke="none" 
	d="
M75.999939,10.281194 
	C77.167847,9.264808 78.336861,8.539521 79.505882,7.814234 
	C79.241844,9.833496 78.977806,11.852759 78.362373,13.938971 
	C77.706917,13.120546 77.402855,12.235173 76.727905,11.300982 
	C76.357018,11.252166 76.143532,11.319903 76.068314,11.237176 
	C75.995750,10.960398 75.998405,10.766346 75.999939,10.281194 
z"/>
<path fill="#E74C2F" opacity="1.000000" stroke="none" 
	d="
M58.846603,24.699837 
	C57.461742,25.508503 55.923943,26.015203 53.744987,26.788723 
	C52.536289,27.124065 51.968746,27.192589 51.401203,27.261110 
	C51.401203,27.261110 51.165741,27.375252 51.077003,26.999844 
	C50.989395,26.426050 50.990528,26.227663 50.943523,25.677296 
	C49.273388,24.836124 47.661633,23.989595 46.026958,23.942749 
	C43.663624,23.875017 41.342999,24.282404 40.993687,20.991577 
	C40.987267,20.795334 40.980850,20.599089 40.950222,20.109186 
	C41.424137,19.604477 41.922260,19.393423 42.699638,19.216991 
	C42.978889,19.251612 42.981106,19.636806 42.992058,19.829338 
	C43.459301,20.637800 43.847252,21.717602 44.382652,21.796469 
	C48.768970,22.442612 53.185596,22.880516 57.583431,23.455061 
	C57.987667,23.507872 58.325169,24.071461 58.846603,24.699837 
z"/>
<path fill="#FA4329" opacity="1.000000" stroke="none" 
	d="
M78.015747,17.483408 
	C78.682137,19.063358 79.341919,21.109919 79.999161,23.954571 
	C79.998024,25.500504 79.999420,26.248343 80.000824,26.996183 
	C79.566177,30.295181 79.131538,33.594177 78.351288,36.942993 
	C78.006836,30.645214 78.007996,24.297617 78.015747,17.483408 
z"/>
<path fill="#F44628" opacity="1.000000" stroke="none" 
	d="
M40.675346,21.129532 
	C41.342999,24.282404 43.663624,23.875017 46.026958,23.942749 
	C47.661633,23.989595 49.273388,24.836124 50.521469,25.669937 
	C48.089478,26.397818 46.031399,26.781080 43.973324,27.164345 
	C43.973324,27.164345 43.767307,27.333710 43.249870,27.210609 
	C41.488373,27.389965 40.244316,27.692421 39.000259,27.994875 
	C38.376953,26.244118 37.753651,24.493359 37.079018,22.392208 
	C38.137463,21.783707 39.247234,21.525597 40.675346,21.129532 
z"/>
<path fill="#E14F39" opacity="1.000000" stroke="none" 
	d="
M16.988327,26.337748 
	C17.160103,26.003151 17.334633,26.002600 17.771347,26.005438 
	C17.854486,26.565399 17.675440,27.121973 17.247204,27.843502 
	C16.995705,27.562902 16.993395,27.117348 16.988327,26.337748 
z"/>
<path fill="#E9523B" opacity="1.000000" stroke="none" 
	d="
M48.853466,40.742348 
	C50.763420,41.342838 52.593128,41.584423 55.648224,41.987793 
	C57.049919,44.573380 55.591606,47.913750 52.392815,50.423344 
	C48.992077,53.091377 45.146618,52.762455 41.901821,50.014294 
	C38.792488,47.380867 38.118427,43.884846 39.908154,40.141205 
	C41.854858,36.069206 45.393120,34.737541 50.499840,36.186558 
	C49.922985,37.588718 49.348103,38.986080 48.853466,40.742348 
z"/>
<path fill="#E95138" opacity="1.000000" stroke="none" 
	d="
M61.615143,34.867256 
	C62.533920,34.014610 63.523636,33.468517 65.052124,32.625141 
	C64.633110,34.789753 64.282043,36.603371 63.854504,38.808884 
	C63.080719,37.858448 62.383400,36.516125 61.615143,34.867256 
z"/>
<path fill="#DC5946" opacity="1.000000" stroke="none" 
	d="
M44.411381,27.199179 
	C46.031399,26.781080 48.089478,26.397818 50.569611,26.021915 
	C50.990528,26.227663 50.989395,26.426050 50.971809,26.922056 
	C48.920048,27.224455 46.884743,27.229235 44.411381,27.199179 
z"/>
<path fill="#DC5946" opacity="1.000000" stroke="none" 
	d="
M39.000156,28.264137 
	C40.244316,27.692421 41.488373,27.389965 43.126438,27.160145 
	C42.252434,27.819746 40.984425,28.406713 39.368225,29.032618 
	C39.013374,28.892170 39.006714,28.712784 39.000156,28.264137 
z"/>
<path fill="#DC5946" opacity="1.000000" stroke="none" 
	d="
M51.645481,27.506790 
	C51.968746,27.192589 52.536289,27.124065 53.530670,27.061653 
	C53.953876,27.255999 53.950245,27.444235 53.919884,27.913563 
	C53.225357,28.047260 52.557556,27.899866 51.645481,27.506790 
z"/>
<path fill="#DC5946" opacity="1.000000" stroke="none" 
	d="
M36.393444,31.123163 
	C36.329670,30.887217 36.541313,30.568378 37.044846,30.190716 
	C37.114109,30.434685 36.891483,30.737478 36.393444,31.123163 
z"/>
<path fill="#DC5946" opacity="1.000000" stroke="none" 
	d="
M35.394585,32.202698 
	C35.305611,31.984247 35.472458,31.641432 35.922550,31.206852 
	C36.020668,31.436171 35.835537,31.757254 35.394585,32.202698 
z"/>
<path fill="#E95138" opacity="1.000000" stroke="none" 
	d="
M60.715141,33.386753 
	C60.950447,33.320538 61.291607,33.521038 61.653408,34.032616 
	C61.389698,34.113621 61.105343,33.883545 60.715141,33.386753 
z"/>
<path fill="#E54C34" opacity="1.000000" stroke="none" 
	d="
M80.250130,26.813637 
	C79.999420,26.248343 79.998024,25.500504 79.999771,24.378847 
	C80.168427,24.880384 80.333931,25.755737 80.250130,26.813637 
z"/>
<path fill="#F74528" opacity="1.000000" stroke="none" 
	d="
M16.575090,15.028354 
	C16.961027,16.398170 16.962433,17.772516 16.945503,19.558132 
	C15.968374,19.351246 15.009579,18.733091 14.050783,18.114937 
	C14.764042,17.087584 15.477301,16.060234 16.575090,15.028354 
z"/>
<path fill="#F44628" opacity="1.000000" stroke="none" 
	d="
M36.533813,27.550980 
	C36.477562,27.584633 36.590061,27.517326 36.533813,27.550980 
z"/>
</svg>